<svg width="390" height="844" viewBox="0 0 390 844" fill="none" xmlns="http://www.w3.org/2000/svg">
<rect width="390" height="845" fill="white"/>
<path d="M-25.8892 838.453H2.16006M-11.8646 824.429L-11.8646 852.478" stroke="#F9F9F9" stroke-width="13.4788" stroke-linecap="round"/>
<path d="M22.0876 835.219C20.5258 833.811 20.3801 831.364 22.0633 830.104C29.3357 824.663 39.6711 824.931 46.6745 831.241C53.6779 837.552 55.0175 847.803 50.3605 855.601C49.2825 857.406 46.8334 857.516 45.2716 856.109C41.1539 852.398 40.3529 851.677 33.6793 845.663C27.1024 839.737 25.8918 838.646 22.0876 835.219Z" fill="#F9F9F9"/>
<ellipse cx="92.221" cy="838.452" rx="16.6635" ry="16.6634" transform="rotate(-90 92.221 838.452)" fill="#F9F9F9"/>
<path d="M130.238 838.453H158.287M144.263 824.429L144.263 852.478" stroke="#F9F9F9" stroke-width="13.4788" stroke-linecap="round"/>
<path d="M178.217 835.219C176.655 833.811 176.509 831.364 178.192 830.104C185.465 824.663 195.8 824.931 202.803 831.241C209.807 837.552 211.146 847.803 206.489 855.601C205.411 857.406 202.962 857.516 201.4 856.109C197.283 852.398 196.482 851.677 189.808 845.663C183.231 839.737 182.021 838.646 178.217 835.219Z" fill="#F9F9F9"/>
<ellipse cx="248.349" cy="838.452" rx="16.6635" ry="16.6634" transform="rotate(-90 248.349 838.452)" fill="#F9F9F9"/>
<path d="M286.365 838.452H314.414M300.39 824.428L300.39 852.477" stroke="#F9F9F9" stroke-width="13.4788" stroke-linecap="round"/>
<path d="M334.343 835.22C332.781 833.813 332.635 831.365 334.318 830.105C341.591 824.664 351.926 824.932 358.929 831.243C365.933 837.553 367.272 847.805 362.615 855.603C361.537 857.408 359.088 857.517 357.526 856.11C353.409 852.4 352.608 851.678 345.934 845.665C339.357 839.739 338.147 838.648 334.343 835.22Z" fill="#F9F9F9"/>
<ellipse cx="404.476" cy="838.452" rx="16.6635" ry="16.6634" transform="rotate(-90 404.476 838.452)" fill="#F9F9F9"/>
<path d="M-29.9529 789.644C-31.5147 791.051 -31.6605 793.499 -29.9772 794.759C-22.7048 800.2 -12.3694 799.932 -5.366 793.622C1.63741 787.311 2.977 777.059 -1.68006 769.262C-2.75799 767.457 -5.20713 767.347 -6.76894 768.754C-10.8867 772.464 -11.6876 773.186 -18.3613 779.199C-24.9381 785.126 -26.1488 786.216 -29.9529 789.644Z" fill="#F9F9F9"/>
<ellipse cx="40.179" cy="786.411" rx="16.6635" ry="16.6634" transform="rotate(-90 40.179 786.411)" fill="#F9F9F9"/>
<path d="M82.3037 796.327L102.138 776.493M82.3037 776.493L102.138 796.327" stroke="#F9F9F9" stroke-width="13.4788" stroke-linecap="round"/>
<path d="M126.174 789.644C124.612 791.051 124.466 793.499 126.15 794.759C133.422 800.2 143.758 799.932 150.761 793.622C157.764 787.311 159.104 777.059 154.447 769.262C153.369 767.457 150.92 767.347 149.358 768.754C145.24 772.464 144.439 773.186 137.766 779.199C131.189 785.126 129.978 786.216 126.174 789.644Z" fill="#F9F9F9"/>
<ellipse cx="196.307" cy="786.41" rx="16.6635" ry="16.6634" transform="rotate(-90 196.307 786.41)" fill="#F9F9F9"/>
<path d="M238.432 796.327L258.265 776.493M238.432 776.493L258.265 796.327" stroke="#F9F9F9" stroke-width="13.4788" stroke-linecap="round"/>
<path d="M282.301 789.644C280.74 791.051 280.594 793.499 282.277 794.758C289.55 800.2 299.885 799.932 306.888 793.621C313.892 787.311 315.231 777.059 310.574 769.261C309.496 767.456 307.047 767.346 305.485 768.754C301.368 772.464 300.567 773.186 293.893 779.199C287.316 785.125 286.106 786.216 282.301 789.644Z" fill="#F9F9F9"/>
<ellipse cx="352.435" cy="786.41" rx="16.6635" ry="16.6634" transform="rotate(-90 352.435 786.41)" fill="#F9F9F9"/>
<path d="M394.56 796.327L414.393 776.493M394.56 776.493L414.393 796.327" stroke="#F9F9F9" stroke-width="13.4788" stroke-linecap="round"/>
<ellipse cx="-11.8625" cy="734.369" rx="16.6635" ry="16.6634" transform="rotate(-90 -11.8625 734.369)" fill="#F9F9F9"/>
<path d="M30.2617 744.286L50.0955 724.452M30.2617 724.452L50.0955 744.286" stroke="#F9F9F9" stroke-width="13.4788" stroke-linecap="round"/>
<path d="M74.1325 731.136C72.5707 729.728 72.425 727.28 74.1083 726.021C81.3806 720.58 91.716 720.848 98.7194 727.158C105.723 733.469 107.062 743.72 102.405 751.518C101.327 753.323 98.8783 753.433 97.3165 752.026C93.1988 748.315 92.3979 747.594 85.7242 741.58C79.1473 735.654 77.9367 734.563 74.1325 731.136Z" fill="#F9F9F9"/>
<ellipse cx="144.265" cy="734.368" rx="16.6635" ry="16.6634" transform="rotate(-90 144.265 734.368)" fill="#F9F9F9"/>
<path d="M186.39 744.286L206.223 724.452M186.39 724.452L206.223 744.286" stroke="#F9F9F9" stroke-width="13.4788" stroke-linecap="round"/>
<path d="M230.26 731.136C228.699 729.728 228.553 727.28 230.236 726.021C237.509 720.58 247.844 720.848 254.847 727.158C261.851 733.469 263.19 743.72 258.533 751.518C257.455 753.323 255.006 753.433 253.444 752.026C249.327 748.315 248.526 747.594 241.852 741.58C235.275 735.654 234.065 734.563 230.26 731.136Z" fill="#F9F9F9"/>
<ellipse cx="300.392" cy="734.368" rx="16.6635" ry="16.6634" transform="rotate(-90 300.392 734.368)" fill="#F9F9F9"/>
<path d="M342.516 744.286L362.349 724.452M342.516 724.452L362.349 744.286" stroke="#F9F9F9" stroke-width="13.4788" stroke-linecap="round"/>
<path d="M386.388 731.135C384.827 729.728 384.681 727.28 386.364 726.021C393.637 720.579 403.972 720.847 410.975 727.158C417.979 733.468 419.318 743.72 414.661 751.518C413.583 753.323 411.134 753.433 409.572 752.025C405.455 748.315 404.654 747.593 397.98 741.58C391.403 735.654 390.193 734.563 386.388 731.135Z" fill="#F9F9F9"/>
<path d="M-25.8901 682.327H2.15908M-11.8655 668.303L-11.8655 696.352" stroke="#F9F9F9" stroke-width="13.4788" stroke-linecap="round"/>
<path d="M22.0891 679.093C20.5273 677.685 20.3815 675.238 22.0648 673.978C29.3372 668.537 39.6726 668.805 46.676 675.115C53.6794 681.426 55.019 691.677 50.3619 699.475C49.284 701.28 46.8349 701.39 45.273 699.983C41.1553 696.272 40.3544 695.551 33.6807 689.537C27.1038 683.611 25.8932 682.52 22.0891 679.093Z" fill="#F9F9F9"/>
<ellipse cx="92.2215" cy="682.326" rx="16.6635" ry="16.6634" transform="rotate(-90 92.2215 682.326)" fill="#F9F9F9"/>
<path d="M130.238 682.327H158.287M144.263 668.302L144.263 696.351" stroke="#F9F9F9" stroke-width="13.4788" stroke-linecap="round"/>
<path d="M178.217 679.093C176.655 677.686 176.509 675.238 178.192 673.979C185.465 668.537 195.8 668.805 202.803 675.116C209.807 681.426 211.146 691.678 206.489 699.476C205.411 701.281 202.962 701.391 201.4 699.983C197.283 696.273 196.482 695.551 189.808 689.538C183.231 683.612 182.021 682.521 178.217 679.093Z" fill="#F9F9F9"/>
<ellipse cx="248.349" cy="682.326" rx="16.6635" ry="16.6634" transform="rotate(-90 248.349 682.326)" fill="#F9F9F9"/>
<path d="M286.364 682.326H314.413M300.389 668.302L300.389 696.351" stroke="#F9F9F9" stroke-width="13.4788" stroke-linecap="round"/>
<path d="M334.343 679.094C332.781 677.686 332.635 675.239 334.318 673.979C341.591 668.538 351.926 668.806 358.929 675.116C365.933 681.427 367.272 691.678 362.615 699.476C361.537 701.281 359.088 701.391 357.526 699.984C353.409 696.273 352.608 695.552 345.934 689.538C339.357 683.612 338.147 682.521 334.343 679.094Z" fill="#F9F9F9"/>
<ellipse cx="404.476" cy="682.326" rx="16.6635" ry="16.6634" transform="rotate(-90 404.476 682.326)" fill="#F9F9F9"/>
<path d="M-29.9529 633.519C-31.5147 634.926 -31.6605 637.374 -29.9772 638.633C-22.7048 644.075 -12.3694 643.807 -5.366 637.496C1.63741 631.186 2.977 620.934 -1.68006 613.136C-2.75799 611.331 -5.20713 611.221 -6.76894 612.629C-10.8867 616.339 -11.6876 617.061 -18.3613 623.074C-24.9381 629 -26.1488 630.091 -29.9529 633.519Z" fill="#F9F9F9"/>
<ellipse cx="40.18" cy="630.285" rx="16.6635" ry="16.6634" transform="rotate(-90 40.18 630.285)" fill="#F9F9F9"/>
<path d="M82.3047 640.202L102.138 620.368M82.3047 620.368L102.138 640.202" stroke="#F9F9F9" stroke-width="13.4788" stroke-linecap="round"/>
<path d="M126.174 633.519C124.612 634.926 124.466 637.374 126.15 638.634C133.422 644.075 143.758 643.807 150.761 637.497C157.764 631.186 159.104 620.934 154.447 613.137C153.369 611.332 150.92 611.222 149.358 612.629C145.24 616.339 144.439 617.061 137.766 623.074C131.189 629.001 129.978 630.091 126.174 633.519Z" fill="#F9F9F9"/>
<ellipse cx="196.307" cy="630.285" rx="16.6635" ry="16.6634" transform="rotate(-90 196.307 630.285)" fill="#F9F9F9"/>
<path d="M238.431 640.202L258.264 620.368M238.431 620.368L258.264 640.202" stroke="#F9F9F9" stroke-width="13.4788" stroke-linecap="round"/>
<path d="M282.301 633.519C280.74 634.926 280.594 637.374 282.277 638.633C289.55 644.075 299.885 643.807 306.888 637.496C313.892 631.186 315.231 620.934 310.574 613.136C309.496 611.331 307.047 611.221 305.485 612.629C301.368 616.339 300.567 617.061 293.893 623.074C287.316 629 286.106 630.091 282.301 633.519Z" fill="#F9F9F9"/>
<ellipse cx="352.434" cy="630.285" rx="16.6635" ry="16.6634" transform="rotate(-90 352.434 630.285)" fill="#F9F9F9"/>
<path d="M394.56 640.202L414.393 620.368M394.56 620.368L414.393 640.202" stroke="#F9F9F9" stroke-width="13.4788" stroke-linecap="round"/>
<ellipse cx="-11.8634" cy="578.242" rx="16.6635" ry="16.6634" transform="rotate(-90 -11.8634 578.242)" fill="#F9F9F9"/>
<path d="M30.2622 588.159L50.096 568.325M30.2622 568.325L50.096 588.159" stroke="#F9F9F9" stroke-width="13.4788" stroke-linecap="round"/>
<path d="M74.1325 575.01C72.5707 573.603 72.425 571.155 74.1083 569.896C81.3806 564.454 91.716 564.722 98.7194 571.033C105.723 577.343 107.062 587.595 102.405 595.393C101.327 597.198 98.8783 597.308 97.3165 595.9C93.1988 592.19 92.3979 591.468 85.7242 585.455C79.1473 579.529 77.9367 578.438 74.1325 575.01Z" fill="#F9F9F9"/>
<ellipse cx="144.264" cy="578.243" rx="16.6635" ry="16.6634" transform="rotate(-90 144.264 578.243)" fill="#F9F9F9"/>
<path d="M186.39 588.161L206.223 568.327M186.39 568.327L206.223 588.161" stroke="#F9F9F9" stroke-width="13.4788" stroke-linecap="round"/>
<path d="M230.26 575.01C228.699 573.603 228.553 571.155 230.236 569.896C237.509 564.454 247.844 564.722 254.847 571.033C261.851 577.343 263.19 587.595 258.533 595.393C257.455 597.198 255.006 597.308 253.444 595.9C249.327 592.19 248.526 591.468 241.852 585.455C235.275 579.529 234.065 578.438 230.26 575.01Z" fill="#F9F9F9"/>
<ellipse cx="300.391" cy="578.242" rx="16.6635" ry="16.6634" transform="rotate(-90 300.391 578.242)" fill="#F9F9F9"/>
<path d="M342.517 588.161L362.35 568.327M342.517 568.327L362.35 588.161" stroke="#F9F9F9" stroke-width="13.4788" stroke-linecap="round"/>
<path d="M386.387 575.009C384.826 573.601 384.68 571.154 386.363 569.894C393.636 564.453 403.971 564.721 410.974 571.031C417.978 577.342 419.317 587.593 414.66 595.391C413.582 597.196 411.133 597.306 409.571 595.899C405.454 592.188 404.653 591.467 397.979 585.453C391.402 579.527 390.192 578.436 386.387 575.009Z" fill="#F9F9F9"/>
<path d="M-25.8892 526.202H2.16006M-11.8646 512.178L-11.8646 540.227" stroke="#F9F9F9" stroke-width="13.4788" stroke-linecap="round"/>
<path d="M22.0881 522.968C20.5263 521.56 20.3806 519.113 22.0638 517.853C29.3362 512.412 39.6716 512.68 46.675 518.99C53.6784 525.301 55.018 535.552 50.361 543.35C49.283 545.155 46.8339 545.265 45.2721 543.858C41.1543 540.147 40.3534 539.426 33.6797 533.412C27.1029 527.486 25.8922 526.395 22.0881 522.968Z" fill="#F9F9F9"/>
<ellipse cx="92.222" cy="526.201" rx="16.6635" ry="16.6634" transform="rotate(-90 92.222 526.201)" fill="#F9F9F9"/>
<path d="M130.238 526.202H158.287M144.263 512.178L144.263 540.227" stroke="#F9F9F9" stroke-width="13.4788" stroke-linecap="round"/>
<path d="M178.217 522.968C176.655 521.56 176.509 519.113 178.192 517.853C185.465 512.412 195.8 512.68 202.803 518.99C209.807 525.301 211.146 535.552 206.489 543.35C205.411 545.155 202.962 545.265 201.4 543.858C197.283 540.147 196.482 539.426 189.808 533.412C183.231 527.486 182.021 526.395 178.217 522.968Z" fill="#F9F9F9"/>
<ellipse cx="248.349" cy="526.2" rx="16.6635" ry="16.6634" transform="rotate(-90 248.349 526.2)" fill="#F9F9F9"/>
<path d="M286.365 526.201H314.414M300.39 512.177L300.39 540.226" stroke="#F9F9F9" stroke-width="13.4788" stroke-linecap="round"/>
<path d="M334.343 522.968C332.782 521.56 332.636 519.113 334.319 517.853C341.592 512.412 351.927 512.68 358.93 518.99C365.934 525.301 367.273 535.552 362.616 543.35C361.538 545.155 359.089 545.265 357.527 543.858C353.41 540.147 352.609 539.426 345.935 533.412C339.358 527.486 338.148 526.395 334.343 522.968Z" fill="#F9F9F9"/>
<ellipse cx="404.476" cy="526.2" rx="16.6635" ry="16.6634" transform="rotate(-90 404.476 526.2)" fill="#F9F9F9"/>
<path d="M-29.9524 477.393C-31.5142 478.8 -31.66 481.248 -29.9767 482.508C-22.7043 487.949 -12.3689 487.681 -5.36551 481.371C1.63789 475.06 2.97749 464.809 -1.67958 457.011C-2.7575 455.206 -5.20665 455.096 -6.76845 456.503C-10.8862 460.213 -11.6871 460.935 -18.3608 466.948C-24.9377 472.875 -26.1483 473.965 -29.9524 477.393Z" fill="#F9F9F9"/>
<ellipse cx="40.18" cy="474.159" rx="16.6635" ry="16.6634" transform="rotate(-90 40.18 474.159)" fill="#F9F9F9"/>
<path d="M82.3047 484.077L102.138 464.243M82.3047 464.243L102.138 484.077" stroke="#F9F9F9" stroke-width="13.4788" stroke-linecap="round"/>
<path d="M126.175 477.393C124.613 478.8 124.467 481.248 126.15 482.508C133.423 487.949 143.758 487.681 150.761 481.371C157.765 475.06 159.104 464.809 154.447 457.011C153.369 455.206 150.92 455.096 149.358 456.503C145.241 460.213 144.44 460.935 137.766 466.948C131.189 472.875 129.979 473.965 126.175 477.393Z" fill="#F9F9F9"/>
<ellipse cx="196.307" cy="474.158" rx="16.6635" ry="16.6634" transform="rotate(-90 196.307 474.158)" fill="#F9F9F9"/>
<path d="M238.431 484.076L258.264 464.242M238.431 464.242L258.264 484.076" stroke="#F9F9F9" stroke-width="13.4788" stroke-linecap="round"/>
<path d="M282.301 477.393C280.74 478.8 280.594 481.248 282.277 482.508C289.55 487.949 299.885 487.681 306.888 481.371C313.892 475.06 315.231 464.809 310.574 457.011C309.496 455.206 307.047 455.096 305.485 456.503C301.368 460.213 300.567 460.935 293.893 466.948C287.316 472.875 286.106 473.965 282.301 477.393Z" fill="#F9F9F9"/>
<ellipse cx="352.434" cy="474.158" rx="16.6635" ry="16.6634" transform="rotate(-90 352.434 474.158)" fill="#F9F9F9"/>
<path d="M394.56 484.076L414.393 464.242M394.56 464.242L414.393 484.076" stroke="#F9F9F9" stroke-width="13.4788" stroke-linecap="round"/>
<ellipse cx="-11.862" cy="422.117" rx="16.6635" ry="16.6634" transform="rotate(-90 -11.862 422.117)" fill="#F9F9F9"/>
<path d="M30.2627 432.034L50.0965 412.2M30.2627 412.2L50.0965 432.034" stroke="#F9F9F9" stroke-width="13.4788" stroke-linecap="round"/>
<path d="M74.1325 418.884C72.5707 417.476 72.425 415.029 74.1083 413.769C81.3806 408.328 91.716 408.596 98.7194 414.906C105.723 421.217 107.062 431.468 102.405 439.266C101.327 441.071 98.8783 441.181 97.3165 439.774C93.1988 436.063 92.3979 435.342 85.7242 429.328C79.1473 423.402 77.9367 422.311 74.1325 418.884Z" fill="#F9F9F9"/>
<ellipse cx="144.265" cy="422.118" rx="16.6635" ry="16.6634" transform="rotate(-90 144.265 422.118)" fill="#F9F9F9"/>
<path d="M186.39 432.035L206.223 412.201M186.39 412.201L206.223 432.035" stroke="#F9F9F9" stroke-width="13.4788" stroke-linecap="round"/>
<path d="M230.259 418.884C228.698 417.476 228.552 415.029 230.235 413.769C237.508 408.328 247.843 408.596 254.846 414.906C261.85 421.217 263.189 431.468 258.532 439.266C257.454 441.071 255.005 441.181 253.443 439.774C249.326 436.063 248.525 435.342 241.851 429.328C235.274 423.402 234.064 422.311 230.259 418.884Z" fill="#F9F9F9"/>
<ellipse cx="300.391" cy="422.116" rx="16.6635" ry="16.6634" transform="rotate(-90 300.391 422.116)" fill="#F9F9F9"/>
<path d="M342.518 432.034L362.351 412.2M342.518 412.2L362.351 432.034" stroke="#F9F9F9" stroke-width="13.4788" stroke-linecap="round"/>
<path d="M386.386 418.883C384.825 417.476 384.679 415.028 386.362 413.769C393.635 408.327 403.97 408.595 410.973 414.906C417.977 421.216 419.316 431.468 414.659 439.266C413.581 441.071 411.132 441.181 409.57 439.773C405.453 436.063 404.652 435.341 397.978 429.328C391.401 423.402 390.191 422.311 386.386 418.883Z" fill="#F9F9F9"/>
<path d="M-25.8892 370.077H2.16006M-11.8646 356.053L-11.8646 384.102" stroke="#F9F9F9" stroke-width="13.4788" stroke-linecap="round"/>
<path d="M22.0876 366.843C20.5258 365.436 20.3801 362.988 22.0633 361.729C29.3357 356.287 39.6711 356.555 46.6745 362.866C53.6779 369.176 55.0175 379.428 50.3605 387.226C49.2825 389.031 46.8334 389.141 45.2716 387.733C41.1539 384.023 40.3529 383.301 33.6793 377.288C27.1024 371.362 25.8918 370.271 22.0876 366.843Z" fill="#F9F9F9"/>
<ellipse cx="92.2215" cy="370.075" rx="16.6635" ry="16.6634" transform="rotate(-90 92.2215 370.075)" fill="#F9F9F9"/>
<path d="M130.239 370.077H158.288M144.263 356.053L144.263 384.102" stroke="#F9F9F9" stroke-width="13.4788" stroke-linecap="round"/>
<path d="M178.217 366.842C176.655 365.435 176.509 362.987 178.192 361.728C185.465 356.286 195.8 356.554 202.803 362.865C209.807 369.175 211.146 379.427 206.489 387.225C205.411 389.03 202.962 389.14 201.4 387.732C197.283 384.022 196.482 383.3 189.808 377.287C183.231 371.361 182.021 370.27 178.217 366.842Z" fill="#F9F9F9"/>
<ellipse cx="248.349" cy="370.075" rx="16.6635" ry="16.6634" transform="rotate(-90 248.349 370.075)" fill="#F9F9F9"/>
<path d="M286.365 370.076H314.414M300.39 356.052L300.39 384.101" stroke="#F9F9F9" stroke-width="13.4788" stroke-linecap="round"/>
<path d="M334.343 366.843C332.782 365.436 332.636 362.988 334.319 361.729C341.592 356.287 351.927 356.555 358.93 362.866C365.934 369.176 367.273 379.428 362.616 387.226C361.538 389.031 359.089 389.141 357.527 387.733C353.41 384.023 352.609 383.301 345.935 377.288C339.358 371.362 338.148 370.271 334.343 366.843Z" fill="#F9F9F9"/>
<ellipse cx="404.476" cy="370.075" rx="16.6635" ry="16.6634" transform="rotate(-90 404.476 370.075)" fill="#F9F9F9"/>
<path d="M-29.9534 321.268C-31.5152 322.675 -31.6609 325.123 -29.9777 326.383C-22.7053 331.824 -12.3699 331.556 -5.36649 325.246C1.63692 318.935 2.97651 308.684 -1.68055 300.886C-2.75848 299.081 -5.20762 298.971 -6.76943 300.378C-10.8872 304.088 -11.6881 304.81 -18.3618 310.823C-24.9386 316.75 -26.1493 317.84 -29.9534 321.268Z" fill="#F9F9F9"/>
<ellipse cx="40.179" cy="318.034" rx="16.6635" ry="16.6634" transform="rotate(-90 40.179 318.034)" fill="#F9F9F9"/>
<path d="M82.3037 327.951L102.138 308.117M82.3037 308.117L102.138 327.951" stroke="#F9F9F9" stroke-width="13.4788" stroke-linecap="round"/>
<path d="M126.174 321.268C124.612 322.675 124.466 325.123 126.149 326.383C133.422 331.824 143.757 331.556 150.76 325.246C157.764 318.935 159.103 308.684 154.446 300.886C153.368 299.081 150.919 298.971 149.358 300.378C145.24 304.088 144.439 304.81 137.765 310.823C131.188 316.75 129.978 317.84 126.174 321.268Z" fill="#F9F9F9"/>
<ellipse cx="196.306" cy="318.034" rx="16.6635" ry="16.6634" transform="rotate(-90 196.306 318.034)" fill="#F9F9F9"/>
<path d="M238.431 327.951L258.264 308.117M238.431 308.117L258.264 327.951" stroke="#F9F9F9" stroke-width="13.4788" stroke-linecap="round"/>
<path d="M282.301 321.268C280.74 322.675 280.594 325.123 282.277 326.382C289.55 331.824 299.885 331.556 306.888 325.245C313.892 318.935 315.231 308.683 310.574 300.885C309.496 299.08 307.047 298.97 305.485 300.378C301.368 304.088 300.567 304.81 293.893 310.823C287.316 316.749 286.106 317.84 282.301 321.268Z" fill="#F9F9F9"/>
<ellipse cx="352.434" cy="318.034" rx="16.6635" ry="16.6634" transform="rotate(-90 352.434 318.034)" fill="#F9F9F9"/>
<path d="M394.559 327.951L414.392 308.117M394.559 308.117L414.392 327.951" stroke="#F9F9F9" stroke-width="13.4788" stroke-linecap="round"/>
<ellipse cx="-11.8629" cy="265.992" rx="16.6635" ry="16.6634" transform="rotate(-90 -11.8629 265.992)" fill="#F9F9F9"/>
<path d="M30.2622 275.909L50.096 256.075M30.2622 256.075L50.096 275.909" stroke="#F9F9F9" stroke-width="13.4788" stroke-linecap="round"/>
<path d="M74.133 262.76C72.5712 261.352 72.4255 258.905 74.1088 257.645C81.3811 252.204 91.7165 252.472 98.7199 258.782C105.723 265.093 107.063 275.344 102.406 283.142C101.328 284.947 98.8788 285.057 97.317 283.65C93.1993 279.939 92.3983 279.218 85.7247 273.204C79.1478 267.278 77.9372 266.187 74.133 262.76Z" fill="#F9F9F9"/>
<ellipse cx="144.265" cy="265.993" rx="16.6635" ry="16.6634" transform="rotate(-90 144.265 265.993)" fill="#F9F9F9"/>
<path d="M186.389 275.91L206.222 256.076M186.389 256.076L206.222 275.91" stroke="#F9F9F9" stroke-width="13.4788" stroke-linecap="round"/>
<path d="M230.26 262.76C228.699 261.352 228.553 258.905 230.236 257.645C237.509 252.204 247.844 252.472 254.847 258.782C261.851 265.093 263.19 275.344 258.533 283.142C257.455 284.947 255.006 285.057 253.444 283.65C249.327 279.939 248.526 279.218 241.852 273.204C235.275 267.278 234.065 266.187 230.26 262.76Z" fill="#F9F9F9"/>
<ellipse cx="300.391" cy="265.993" rx="16.6635" ry="16.6634" transform="rotate(-90 300.391 265.993)" fill="#F9F9F9"/>
<path d="M342.516 275.91L362.349 256.076M342.516 256.076L362.349 275.91" stroke="#F9F9F9" stroke-width="13.4788" stroke-linecap="round"/>
<path d="M386.387 262.759C384.826 261.352 384.68 258.904 386.363 257.645C393.636 252.203 403.971 252.471 410.974 258.782C417.978 265.092 419.317 275.344 414.66 283.142C413.582 284.947 411.133 285.057 409.571 283.649C405.454 279.939 404.653 279.217 397.979 273.204C391.402 267.278 390.192 266.187 386.387 262.759Z" fill="#F9F9F9"/>
<path d="M-25.8901 213.952H2.15908M-11.8655 199.927L-11.8655 227.976" stroke="#F9F9F9" stroke-width="13.4788" stroke-linecap="round"/>
<path d="M22.0891 210.718C20.5273 209.31 20.3815 206.863 22.0648 205.603C29.3372 200.162 39.6726 200.43 46.676 206.74C53.6794 213.051 55.019 223.302 50.3619 231.1C49.284 232.905 46.8349 233.015 45.273 231.608C41.1553 227.897 40.3544 227.176 33.6807 221.162C27.1038 215.236 25.8932 214.145 22.0891 210.718Z" fill="#F9F9F9"/>
<ellipse cx="92.2215" cy="213.951" rx="16.6635" ry="16.6634" transform="rotate(-90 92.2215 213.951)" fill="#F9F9F9"/>
<path d="M130.237 213.952H158.287M144.262 199.927L144.262 227.976" stroke="#F9F9F9" stroke-width="13.4788" stroke-linecap="round"/>
<path d="M178.217 210.718C176.655 209.31 176.509 206.863 178.192 205.603C185.465 200.162 195.8 200.43 202.803 206.74C209.807 213.051 211.146 223.302 206.489 231.1C205.411 232.905 202.962 233.015 201.4 231.608C197.283 227.897 196.482 227.176 189.808 221.162C183.231 215.236 182.021 214.145 178.217 210.718Z" fill="#F9F9F9"/>
<ellipse cx="248.349" cy="213.951" rx="16.6635" ry="16.6634" transform="rotate(-90 248.349 213.951)" fill="#F9F9F9"/>
<path d="M286.365 213.952H314.414M300.39 199.927L300.39 227.976" stroke="#F9F9F9" stroke-width="13.4788" stroke-linecap="round"/>
<path d="M334.343 210.718C332.782 209.31 332.636 206.863 334.319 205.603C341.592 200.162 351.927 200.43 358.93 206.74C365.934 213.051 367.273 223.302 362.616 231.1C361.538 232.905 359.089 233.015 357.527 231.608C353.41 227.897 352.609 227.176 345.935 221.162C339.358 215.236 338.148 214.145 334.343 210.718Z" fill="#F9F9F9"/>
<ellipse cx="404.476" cy="213.95" rx="16.6635" ry="16.6634" transform="rotate(-90 404.476 213.95)" fill="#F9F9F9"/>
<path d="M-29.9534 165.143C-31.5152 166.55 -31.6609 168.998 -29.9777 170.257C-22.7053 175.699 -12.3699 175.431 -5.36649 169.12C1.63692 162.81 2.97651 152.558 -1.68055 144.76C-2.75848 142.955 -5.20762 142.845 -6.76943 144.253C-10.8872 147.963 -11.6881 148.685 -18.3618 154.698C-24.9386 160.624 -26.1493 161.715 -29.9534 165.143Z" fill="#F9F9F9"/>
<ellipse cx="40.18" cy="161.908" rx="16.6635" ry="16.6634" transform="rotate(-90 40.18 161.908)" fill="#F9F9F9"/>
<path d="M82.3047 171.826L102.138 151.992M82.3047 151.992L102.138 171.826" stroke="#F9F9F9" stroke-width="13.4788" stroke-linecap="round"/>
<path d="M126.174 165.142C124.612 166.549 124.466 168.997 126.149 170.257C133.422 175.698 143.757 175.43 150.76 169.12C157.764 162.809 159.103 152.558 154.446 144.76C153.368 142.955 150.919 142.845 149.358 144.252C145.24 147.962 144.439 148.684 137.765 154.697C131.188 160.624 129.978 161.714 126.174 165.142Z" fill="#F9F9F9"/>
<ellipse cx="196.308" cy="161.908" rx="16.6635" ry="16.6634" transform="rotate(-90 196.308 161.908)" fill="#F9F9F9"/>
<path d="M238.432 171.825L258.265 151.991M238.432 151.991L258.265 171.825" stroke="#F9F9F9" stroke-width="13.4788" stroke-linecap="round"/>
<path d="M282.301 165.142C280.739 166.549 280.593 168.997 282.276 170.257C289.549 175.698 299.884 175.43 306.887 169.12C313.891 162.809 315.23 152.558 310.573 144.76C309.495 142.955 307.046 142.845 305.484 144.252C301.367 147.962 300.566 148.684 293.892 154.697C287.315 160.624 286.105 161.714 282.301 165.142Z" fill="#F9F9F9"/>
<ellipse cx="352.434" cy="161.909" rx="16.6635" ry="16.6634" transform="rotate(-90 352.434 161.909)" fill="#F9F9F9"/>
<path d="M394.558 171.826L414.391 151.992M394.558 151.992L414.391 171.826" stroke="#F9F9F9" stroke-width="13.4788" stroke-linecap="round"/>
<path d="M331.273 253.778C363.643 279.307 392.955 339.447 392.955 339.447V0.200684L1.16553 0.200684C1.16553 0.200684 49.9873 66.1431 92.5449 95.0068C120.943 114.267 146.164 110.551 171.36 133.843C197.484 157.993 190.957 188.473 217.049 212.658C251.82 244.887 294.048 224.42 331.273 253.778Z" fill="url(#paint0_linear_235_4583)"/>
<path d="M336.413 197.808C357.43 234.36 383.626 251.493 394.096 255.491V0.200195L53.1372 0.200195V24.1873C60.2956 83.4063 116.347 105.589 166.793 111.527C202.53 115.734 239.392 119.187 269.904 138.262C296.444 154.855 323.988 176.198 336.413 197.808Z" fill="url(#paint1_linear_235_4583)"/>
<path d="M106.251 31.0407C77.4669 48.4028 23.4389 67.2117 0.0229492 74.4459L0.0229492 -0.371094L394.096 -0.371094V35.6095C376.963 33.1347 331.273 32.1828 285.583 48.1742C239.894 64.1656 201.058 44.8201 178.213 31.0407C166.219 23.8065 135.036 13.6786 106.251 31.0407Z" fill="url(#paint2_linear_235_4583)"/>
<mask id="mask0_235_4583" style="mask-type:alpha" maskUnits="userSpaceOnUse" x="100" y="-158" width="425" height="425">
<rect x="100.54" y="-158" width="424.109" height="424.109" fill="url(#paint3_radial_235_4583)"/>
</mask>
<g mask="url(#mask0_235_4583)">
<g style="mix-blend-mode:soft-light">
<circle cx="312.776" cy="53.7537" r="4.48558" fill="white" fill-opacity="0.5"/>
<circle cx="300.048" cy="49.3262" r="4.2613" transform="rotate(-63 300.048 49.3262)" fill="white" fill-opacity="0.5"/>
<circle cx="301.596" cy="64.3089" r="4.26131" transform="rotate(-123 301.596 64.3089)" fill="white" fill-opacity="0.5"/>
<circle cx="314.975" cy="70.2884" r="4.2613" transform="rotate(177 314.975 70.2884)" fill="white" fill-opacity="0.5"/>
<circle cx="327.479" cy="61.7573" r="4.2613" transform="rotate(117 327.479 61.7573)" fill="white" fill-opacity="0.5"/>
<circle cx="326.004" cy="46.7717" r="4.26131" transform="rotate(57 326.004 46.7717)" fill="white" fill-opacity="0.5"/>
<circle cx="312.022" cy="40.3191" r="4.2613" transform="rotate(-3 312.022 40.3191)" fill="white" fill-opacity="0.5"/>
<circle cx="296.501" cy="32.8365" r="4.03703" transform="rotate(-36 296.501 32.8365)" fill="white" fill-opacity="0.5"/>
<circle cx="287.495" cy="44.5258" r="4.03703" transform="rotate(-66 287.495 44.5258)" fill="white" fill-opacity="0.5"/>
<circle cx="285.261" cy="58.9274" r="4.03703" transform="rotate(-96 285.261 58.9274)" fill="white" fill-opacity="0.5"/>
<circle cx="291.16" cy="72.7966" r="4.03703" transform="rotate(-126 291.16 72.7966)" fill="white" fill-opacity="0.5"/>
<circle cx="302.848" cy="81.8033" r="4.03703" transform="rotate(-156 302.848 81.8033)" fill="white" fill-opacity="0.5"/>
<circle cx="317.196" cy="83.5335" r="4.03703" transform="rotate(174 317.196 83.5335)" fill="white" fill-opacity="0.5"/>
<circle cx="331.119" cy="78.1386" r="4.03703" transform="rotate(144 331.119 78.1386)" fill="white" fill-opacity="0.5"/>
<circle cx="340.125" cy="66.4498" r="4.03703" transform="rotate(114 340.125 66.4498)" fill="white" fill-opacity="0.5"/>
<circle cx="341.804" cy="51.5995" r="4.03703" transform="rotate(84 341.804 51.5995)" fill="white" fill-opacity="0.5"/>
<circle cx="336.46" cy="38.1795" r="4.03703" transform="rotate(54 336.46 38.1795)" fill="white" fill-opacity="0.5"/>
<circle cx="324.772" cy="29.1733" r="4.03703" transform="rotate(24 324.772 29.1733)" fill="white" fill-opacity="0.5"/>
<circle cx="309.869" cy="26.9928" r="4.03703" transform="rotate(-6 309.869 26.9928)" fill="white" fill-opacity="0.5"/>
<circle cx="292.841" cy="19.0243" r="3.81275" transform="rotate(-29 292.841 19.0243)" fill="white" fill-opacity="0.5"/>
<circle cx="281.769" cy="28.453" r="3.81275" transform="rotate(-49 281.769 28.453)" fill="white" fill-opacity="0.5"/>
<circle cx="274.435" cy="41.0412" r="3.81275" transform="rotate(-69 274.435 41.0412)" fill="white" fill-opacity="0.5"/>
<circle cx="271.726" cy="55.271" r="3.81275" transform="rotate(-89 271.726 55.271)" fill="white" fill-opacity="0.5"/>
<circle cx="274.266" cy="69.6214" r="3.81275" transform="rotate(-109 274.266 69.6214)" fill="white" fill-opacity="0.5"/>
<circle cx="281.679" cy="82.3719" r="3.81275" transform="rotate(-129 281.679 82.3719)" fill="white" fill-opacity="0.5"/>
<circle cx="292.866" cy="91.775" r="3.81275" transform="rotate(-149 292.866 91.775)" fill="white" fill-opacity="0.5"/>
<circle cx="306.455" cy="96.6997" r="3.81275" transform="rotate(-169 306.455 96.6997)" fill="white" fill-opacity="0.5"/>
<circle cx="320.806" cy="96.5548" r="3.81275" transform="rotate(171 320.806 96.5548)" fill="white" fill-opacity="0.5"/>
<circle cx="334.726" cy="91.7452" r="3.81275" transform="rotate(151 334.726 91.7452)" fill="white" fill-opacity="0.5"/>
<circle cx="346" cy="82.4626" r="3.81275" transform="rotate(131 346 82.4626)" fill="white" fill-opacity="0.5"/>
<circle cx="353.267" cy="69.8255" r="3.81275" transform="rotate(111 353.267 69.8255)" fill="white" fill-opacity="0.5"/>
<circle cx="355.648" cy="55.3579" r="3.81275" transform="rotate(91 355.648 55.3579)" fill="white" fill-opacity="0.5"/>
<circle cx="353.131" cy="41.0036" r="3.81275" transform="rotate(71 353.131 41.0036)" fill="white" fill-opacity="0.5"/>
<circle cx="346.022" cy="28.4943" r="3.81275" transform="rotate(51 346.022 28.4943)" fill="white" fill-opacity="0.5"/>
<circle cx="334.902" cy="19.1401" r="3.81275" transform="rotate(31 334.902 19.1401)" fill="white" fill-opacity="0.5"/>
<circle cx="321.113" cy="14.0693" r="3.81275" transform="rotate(11 321.113 14.0693)" fill="white" fill-opacity="0.5"/>
<circle cx="306.318" cy="13.8935" r="3.81275" transform="rotate(-9 306.318 13.8935)" fill="white" fill-opacity="0.5"/>
<circle cx="288.006" cy="6.24156" r="3.58847" transform="rotate(-27 288.006 6.24156)" fill="white" fill-opacity="0.5"/>
<circle cx="276.302" cy="14.6577" r="3.58847" transform="rotate(-42 276.302 14.6577)" fill="white" fill-opacity="0.5"/>
<circle cx="267.085" cy="25.7994" r="3.58847" transform="rotate(-57 267.085 25.7994)" fill="white" fill-opacity="0.5"/>
<circle cx="260.981" cy="38.907" r="3.58847" transform="rotate(-72 260.981 38.907)" fill="white" fill-opacity="0.5"/>
<circle cx="258.409" cy="53.1091" r="3.58847" transform="rotate(-87 258.409 53.1091)" fill="white" fill-opacity="0.5"/>
<circle cx="259.54" cy="67.3972" r="3.58847" transform="rotate(-102 259.54 67.3972)" fill="white" fill-opacity="0.5"/>
<circle cx="264.728" cy="81.0954" r="3.58847" transform="rotate(-117 264.728 81.0954)" fill="white" fill-opacity="0.5"/>
<circle cx="273.191" cy="92.9917" r="3.58847" transform="rotate(-132 273.191 92.9917)" fill="white" fill-opacity="0.5"/>
<circle cx="284.352" cy="102.275" r="3.58847" transform="rotate(-147 284.352 102.275)" fill="white" fill-opacity="0.5"/>
<circle cx="297.449" cy="108.312" r="3.58847" transform="rotate(-162 297.449 108.312)" fill="white" fill-opacity="0.5"/>
<circle cx="311.591" cy="110.693" r="3.58847" transform="rotate(-177 311.591 110.693)" fill="white" fill-opacity="0.5"/>
<circle cx="325.812" cy="109.255" r="3.58847" transform="rotate(168 325.812 109.255)" fill="white" fill-opacity="0.5"/>
<circle cx="339.577" cy="104.374" r="3.58847" transform="rotate(153 339.577 104.374)" fill="white" fill-opacity="0.5"/>
<circle cx="351.515" cy="96.105" r="3.58847" transform="rotate(138 351.515 96.105)" fill="white" fill-opacity="0.5"/>
<circle cx="360.811" cy="85.0107" r="3.58847" transform="rotate(123 360.811 85.0107)" fill="white" fill-opacity="0.5"/>
<circle cx="366.836" cy="71.8469" r="3.58847" transform="rotate(108 366.836 71.8469)" fill="white" fill-opacity="0.5"/>
<circle cx="369.176" cy="57.512" r="3.58847" transform="rotate(93 369.176 57.512)" fill="white" fill-opacity="0.5"/>
<circle cx="367.671" cy="42.9812" r="3.58847" transform="rotate(78 367.671 42.9812)" fill="white" fill-opacity="0.5"/>
<circle cx="362.857" cy="29.5257" r="3.58847" transform="rotate(63 362.857 29.5257)" fill="white" fill-opacity="0.5"/>
<circle cx="354.628" cy="17.7823" r="3.58847" transform="rotate(48 354.628 17.7823)" fill="white" fill-opacity="0.5"/>
<circle cx="343.547" cy="8.55039" r="3.58847" transform="rotate(33 343.547 8.55039)" fill="white" fill-opacity="0.5"/>
<circle cx="330.37" cy="2.4607" r="3.58847" transform="rotate(18 330.37 2.4607)" fill="white" fill-opacity="0.5"/>
<circle cx="315.993" cy="-0.0728832" r="3.58847" transform="rotate(3 315.993 -0.0728832)" fill="white" fill-opacity="0.5"/>
<circle cx="301.4" cy="1.12481" r="3.58847" transform="rotate(-12 301.4 1.12481)" fill="white" fill-opacity="0.5"/>
<circle cx="270.012" cy="2.22143" r="3.36419" transform="rotate(-39 270.012 2.22143)" fill="white" fill-opacity="0.5"/>
<circle cx="260" cy="12.5452" r="3.36419" transform="rotate(-51 260 12.5452)" fill="white" fill-opacity="0.5"/>
<circle cx="252.293" cy="24.7085" r="3.36419" transform="rotate(-63 252.293 24.7085)" fill="white" fill-opacity="0.5"/>
<circle cx="247.23" cy="38.1812" r="3.36419" transform="rotate(-75 247.23 38.1812)" fill="white" fill-opacity="0.5"/>
<circle cx="245.032" cy="52.3746" r="3.36419" transform="rotate(-87 245.032 52.3746)" fill="white" fill-opacity="0.5"/>
<circle cx="245.793" cy="66.6661" r="3.36419" transform="rotate(-99 245.793 66.6661)" fill="white" fill-opacity="0.5"/>
<circle cx="249.675" cy="80.534" r="3.36419" transform="rotate(-111 249.675 80.534)" fill="white" fill-opacity="0.5"/>
<circle cx="256.467" cy="93.3805" r="3.36419" transform="rotate(-123 256.467 93.3805)" fill="white" fill-opacity="0.5"/>
<circle cx="265.736" cy="104.526" r="3.36419" transform="rotate(-135 265.736 104.526)" fill="white" fill-opacity="0.5"/>
<circle cx="277.059" cy="113.497" r="3.36419" transform="rotate(-147 277.059 113.497)" fill="white" fill-opacity="0.5"/>
<circle cx="289.942" cy="119.896" r="3.36419" transform="rotate(-159 289.942 119.896)" fill="white" fill-opacity="0.5"/>
<circle cx="303.823" cy="123.443" r="3.36419" transform="rotate(-171 303.823 123.443)" fill="white" fill-opacity="0.5"/>
<circle cx="318.095" cy="123.985" r="3.36419" transform="rotate(177 318.095 123.985)" fill="white" fill-opacity="0.5"/>
<circle cx="332.136" cy="121.496" r="3.36419" transform="rotate(165 332.136 121.496)" fill="white" fill-opacity="0.5"/>
<circle cx="345.686" cy="116.29" r="3.36419" transform="rotate(153 345.686 116.29)" fill="white" fill-opacity="0.5"/>
<circle cx="357.798" cy="108.392" r="3.36419" transform="rotate(141 357.798 108.392)" fill="white" fill-opacity="0.5"/>
<circle cx="367.941" cy="98.1438" r="3.36419" transform="rotate(129 367.941 98.1438)" fill="white" fill-opacity="0.5"/>
<circle cx="375.675" cy="85.9956" r="3.36419" transform="rotate(117 375.675 85.9956)" fill="white" fill-opacity="0.5"/>
<circle cx="380.659" cy="72.478" r="3.36419" transform="rotate(105 380.659 72.478)" fill="white" fill-opacity="0.5"/>
<circle cx="382.676" cy="58.1796" r="3.36419" transform="rotate(93 382.676 58.1796)" fill="white" fill-opacity="0.5"/>
<circle cx="381.638" cy="43.728" r="3.36419" transform="rotate(81 381.638 43.728)" fill="white" fill-opacity="0.5"/>
<circle cx="377.769" cy="29.8566" r="3.36419" transform="rotate(69 377.769 29.8566)" fill="white" fill-opacity="0.5"/>
<circle cx="371.24" cy="17.1732" r="3.36419" transform="rotate(57 371.24 17.1732)" fill="white" fill-opacity="0.5"/>
<circle cx="362.155" cy="6.12682" r="3.36419" transform="rotate(45 362.155 6.12682)" fill="white" fill-opacity="0.5"/>
<circle cx="350.913" cy="-2.79844" r="3.36419" transform="rotate(33 350.913 -2.79844)" fill="white" fill-opacity="0.5"/>
<circle cx="252.325" cy="0.691919" r="3.13991" transform="rotate(-48 252.325 0.691919)" fill="white" fill-opacity="0.5"/>
<circle cx="243.823" cy="12.2462" r="3.13991" transform="rotate(-58 243.823 12.2462)" fill="white" fill-opacity="0.5"/>
<circle cx="237.417" cy="25.0887" r="3.13991" transform="rotate(-68 237.417 25.0887)" fill="white" fill-opacity="0.5"/>
<circle cx="233.298" cy="38.8306" r="3.13991" transform="rotate(-78 233.298 38.8306)" fill="white" fill-opacity="0.5"/>
<circle cx="231.596" cy="53.0526" r="3.13991" transform="rotate(-88 231.596 53.0526)" fill="white" fill-opacity="0.5"/>
<circle cx="232.322" cy="67.2017" r="3.13991" transform="rotate(-98 232.322 67.2017)" fill="white" fill-opacity="0.5"/>
<circle cx="235.53" cy="81.0855" r="3.13991" transform="rotate(-108 235.53 81.0855)" fill="white" fill-opacity="0.5"/>
<circle cx="241.361" cy="94.3077" r="3.13991" transform="rotate(-118 241.361 94.3077)" fill="white" fill-opacity="0.5"/>
<circle cx="249.362" cy="106.325" r="3.13991" transform="rotate(-128 249.362 106.325)" fill="white" fill-opacity="0.5"/>
<circle cx="259.291" cy="116.772" r="3.13991" transform="rotate(-138 259.291 116.772)" fill="white" fill-opacity="0.5"/>
<circle cx="270.846" cy="125.332" r="3.13991" transform="rotate(-148 270.846 125.332)" fill="white" fill-opacity="0.5"/>
<circle cx="283.674" cy="131.743" r="3.13991" transform="rotate(-158 283.674 131.743)" fill="white" fill-opacity="0.5"/>
<circle cx="297.386" cy="135.812" r="3.13991" transform="rotate(-168 297.386 135.812)" fill="white" fill-opacity="0.5"/>
<circle cx="311.565" cy="137.416" r="3.13991" transform="rotate(-178 311.565 137.416)" fill="white" fill-opacity="0.5"/>
<circle cx="325.783" cy="136.504" r="3.13991" transform="rotate(172 325.783 136.504)" fill="white" fill-opacity="0.5"/>
<circle cx="339.604" cy="133.106" r="3.13991" transform="rotate(162 339.604 133.106)" fill="white" fill-opacity="0.5"/>
<circle cx="352.887" cy="127.464" r="3.13991" transform="rotate(152 352.887 127.464)" fill="white" fill-opacity="0.5"/>
<circle cx="364.953" cy="119.612" r="3.13991" transform="rotate(142 364.953 119.612)" fill="white" fill-opacity="0.5"/>
<circle cx="375.433" cy="109.785" r="3.13991" transform="rotate(132 375.433 109.785)" fill="white" fill-opacity="0.5"/>
<circle cx="384.009" cy="98.2831" r="3.13991" transform="rotate(122 384.009 98.2831)" fill="white" fill-opacity="0.5"/>
<circle cx="390.421" cy="85.4548" r="3.13991" transform="rotate(112 390.421 85.4548)" fill="white" fill-opacity="0.5"/>
<circle cx="391.623" cy="29.0307" r="3.13991" transform="rotate(72 391.623 29.0307)" fill="white" fill-opacity="0.5"/>
<circle cx="386.044" cy="15.9379" r="3.13991" transform="rotate(62 386.044 15.9379)" fill="white" fill-opacity="0.5"/>
<circle cx="378.24" cy="4.02166" r="3.13991" transform="rotate(52 378.24 4.02166)" fill="white" fill-opacity="0.5"/>
<circle cx="234.868" cy="1.1661" r="2.91563" transform="rotate(-55.2857 234.868 1.1661)" fill="white" fill-opacity="0.5"/>
<circle cx="227.592" cy="13.2225" r="2.91563" transform="rotate(-63.8571 227.592 13.2225)" fill="white" fill-opacity="0.5"/>
<circle cx="222.329" cy="26.4834" r="2.91563" transform="rotate(-72.4286 222.329 26.4834)" fill="white" fill-opacity="0.5"/>
<circle cx="219.084" cy="40.3737" r="2.91563" transform="rotate(-81 219.084 40.3737)" fill="white" fill-opacity="0.5"/>
<circle cx="217.934" cy="54.5828" r="2.91563" transform="rotate(-89.5714 217.934 54.5828)" fill="white" fill-opacity="0.5"/>
<circle cx="218.902" cy="68.7936" r="2.91563" transform="rotate(-98.1429 218.902 68.7936)" fill="white" fill-opacity="0.5"/>
<circle cx="221.967" cy="82.6879" r="2.91563" transform="rotate(-106.714 221.967 82.6879)" fill="white" fill-opacity="0.5"/>
<circle cx="227.186" cy="95.967" r="2.91563" transform="rotate(-115.286 227.186 95.967)" fill="white" fill-opacity="0.5"/>
<circle cx="234.28" cy="108.397" r="2.91563" transform="rotate(-123.857 234.28 108.397)" fill="white" fill-opacity="0.5"/>
<circle cx="243.183" cy="119.605" r="2.91563" transform="rotate(-132.429 243.183 119.605)" fill="white" fill-opacity="0.5"/>
<circle cx="253.64" cy="129.362" r="2.91563" transform="rotate(-141 253.64 129.362)" fill="white" fill-opacity="0.5"/>
<circle cx="265.42" cy="137.45" r="2.91563" transform="rotate(-149.571 265.42 137.45)" fill="white" fill-opacity="0.5"/>
<circle cx="278.254" cy="143.688" r="2.91563" transform="rotate(-158.143 278.254 143.688)" fill="white" fill-opacity="0.5"/>
<circle cx="291.863" cy="147.938" r="2.91563" transform="rotate(-166.714 291.863 147.938)" fill="white" fill-opacity="0.5"/>
<circle cx="305.937" cy="150.104" r="2.91563" transform="rotate(-175.286 305.937 150.104)" fill="white" fill-opacity="0.5"/>
<circle cx="320.164" cy="150.137" r="2.91563" transform="rotate(176.143 320.164 150.137)" fill="white" fill-opacity="0.5"/>
<circle cx="334.226" cy="148.038" r="2.91563" transform="rotate(167.571 334.226 148.038)" fill="white" fill-opacity="0.5"/>
<circle cx="347.809" cy="143.852" r="2.91563" transform="rotate(159 347.809 143.852)" fill="white" fill-opacity="0.5"/>
<circle cx="360.752" cy="137.737" r="2.91563" transform="rotate(150.429 360.752 137.737)" fill="white" fill-opacity="0.5"/>
<circle cx="372.624" cy="129.766" r="2.91563" transform="rotate(141.857 372.624 129.766)" fill="white" fill-opacity="0.5"/>
<circle cx="383.159" cy="120.118" r="2.91563" transform="rotate(133.286 383.159 120.118)" fill="white" fill-opacity="0.5"/>
<circle cx="392.121" cy="109.007" r="2.91563" transform="rotate(124.714 392.121 109.007)" fill="white" fill-opacity="0.5"/>
<circle cx="392.416" cy="1.41473" r="2.91563" transform="rotate(56.1429 392.416 1.41473)" fill="white" fill-opacity="0.5"/>
<circle cx="217.562" cy="3.25982" r="2.69135" transform="rotate(-61.5 217.562 3.25982)" fill="white" fill-opacity="0.5"/>
<circle cx="211.647" cy="16.219" r="2.69135" transform="rotate(-69 211.647 16.219)" fill="white" fill-opacity="0.5"/>
<circle cx="207.461" cy="29.8365" r="2.69135" transform="rotate(-76.5 207.461 29.8365)" fill="white" fill-opacity="0.5"/>
<circle cx="205.078" cy="43.8786" r="2.69135" transform="rotate(-84 205.078 43.8786)" fill="white" fill-opacity="0.5"/>
<circle cx="204.539" cy="58.1039" r="2.69135" transform="rotate(-91.5 204.539 58.1039)" fill="white" fill-opacity="0.5"/>
<circle cx="205.85" cy="72.2713" r="2.69135" transform="rotate(-99 205.85 72.2713)" fill="white" fill-opacity="0.5"/>
<circle cx="208.991" cy="86.1365" r="2.69135" transform="rotate(-106.5 208.991 86.1365)" fill="white" fill-opacity="0.5"/>
<circle cx="213.908" cy="99.4633" r="2.69135" transform="rotate(-114 213.908 99.4633)" fill="white" fill-opacity="0.5"/>
<circle cx="220.642" cy="112.071" r="2.69135" transform="rotate(-121.5 220.642 112.071)" fill="white" fill-opacity="0.5"/>
<circle cx="228.953" cy="123.698" r="2.69135" transform="rotate(-129 228.953 123.698)" fill="white" fill-opacity="0.5"/>
<circle cx="238.858" cy="134.332" r="2.69135" transform="rotate(-136.5 238.858 134.332)" fill="white" fill-opacity="0.5"/>
<circle cx="249.895" cy="143.417" r="2.69135" transform="rotate(-144 249.895 143.417)" fill="white" fill-opacity="0.5"/>
<circle cx="262.006" cy="150.983" r="2.69135" transform="rotate(-151.5 262.006 150.983)" fill="white" fill-opacity="0.5"/>
<circle cx="274.986" cy="156.902" r="2.69135" transform="rotate(-159 274.986 156.902)" fill="white" fill-opacity="0.5"/>
<circle cx="288.613" cy="161.07" r="2.69135" transform="rotate(-166.5 288.613 161.07)" fill="white" fill-opacity="0.5"/>
<circle cx="302.655" cy="163.418" r="2.69135" transform="rotate(-174 302.655 163.418)" fill="white" fill-opacity="0.5"/>
<circle cx="316.868" cy="163.904" r="2.69135" transform="rotate(178.5 316.868 163.904)" fill="white" fill-opacity="0.5"/>
<circle cx="331.013" cy="162.522" r="2.69135" transform="rotate(171 331.013 162.522)" fill="white" fill-opacity="0.5"/>
<circle cx="344.845" cy="159.293" r="2.69135" transform="rotate(163.5 344.845 159.293)" fill="white" fill-opacity="0.5"/>
<circle cx="358.127" cy="154.275" r="2.69135" transform="rotate(156 358.127 154.275)" fill="white" fill-opacity="0.5"/>
<circle cx="370.79" cy="147.611" r="2.69135" transform="rotate(148.5 370.79 147.611)" fill="white" fill-opacity="0.5"/>
<circle cx="382.462" cy="139.357" r="2.69135" transform="rotate(141 382.462 139.357)" fill="white" fill-opacity="0.5"/>
<circle cx="392.941" cy="129.654" r="2.69135" transform="rotate(133.5 392.941 129.654)" fill="white" fill-opacity="0.5"/>
<circle cx="200.701" cy="7.44643" r="2.46707" transform="rotate(-67 200.701 7.44643)" fill="white" fill-opacity="0.5"/>
<circle cx="195.957" cy="20.8668" r="2.46707" transform="rotate(-73.6667 195.957 20.8668)" fill="white" fill-opacity="0.5"/>
<circle cx="192.793" cy="34.7444" r="2.46707" transform="rotate(-80.3333 192.793 34.7444)" fill="white" fill-opacity="0.5"/>
<circle cx="191.25" cy="48.8905" r="2.46707" transform="rotate(-87 191.25 48.8905)" fill="white" fill-opacity="0.5"/>
<circle cx="191.352" cy="63.1151" r="2.46707" transform="rotate(-93.6667 191.352 63.1151)" fill="white" fill-opacity="0.5"/>
<circle cx="193.096" cy="77.2256" r="2.46707" transform="rotate(-100.333 193.096 77.2256)" fill="white" fill-opacity="0.5"/>
<circle cx="196.457" cy="91.0303" r="2.46707" transform="rotate(-107 196.457 91.0303)" fill="white" fill-opacity="0.5"/>
<circle cx="201.39" cy="104.343" r="2.46707" transform="rotate(-113.667 201.39 104.343)" fill="white" fill-opacity="0.5"/>
<circle cx="207.933" cy="116.987" r="2.46707" transform="rotate(-120.333 207.933 116.987)" fill="white" fill-opacity="0.5"/>
<circle cx="215.879" cy="128.844" r="2.46707" transform="rotate(-127 215.879 128.844)" fill="white" fill-opacity="0.5"/>
<circle cx="225.174" cy="139.679" r="2.46707" transform="rotate(-133.667 225.174 139.679)" fill="white" fill-opacity="0.5"/>
<circle cx="235.653" cy="149.365" r="2.46707" transform="rotate(-140.333 235.653 149.365)" fill="white" fill-opacity="0.5"/>
<circle cx="247.175" cy="157.771" r="2.46707" transform="rotate(-147 247.175 157.771)" fill="white" fill-opacity="0.5"/>
<circle cx="259.584" cy="164.781" r="2.46707" transform="rotate(-153.667 259.584 164.781)" fill="white" fill-opacity="0.5"/>
<circle cx="272.713" cy="170.303" r="2.46707" transform="rotate(-160.333 272.713 170.303)" fill="white" fill-opacity="0.5"/>
<circle cx="286.383" cy="174.261" r="2.46707" transform="rotate(-167 286.383 174.261)" fill="white" fill-opacity="0.5"/>
<circle cx="300.41" cy="176.601" r="2.46707" transform="rotate(-173.667 300.41 176.601)" fill="white" fill-opacity="0.5"/>
<circle cx="314.605" cy="177.292" r="2.46707" transform="rotate(179.667 314.605 177.292)" fill="white" fill-opacity="0.5"/>
<circle cx="328.774" cy="176.325" r="2.46707" transform="rotate(173 328.774 176.325)" fill="white" fill-opacity="0.5"/>
<circle cx="342.727" cy="173.713" r="2.46707" transform="rotate(166.333 342.727 173.713)" fill="white" fill-opacity="0.5"/>
<circle cx="356.275" cy="169.489" r="2.46707" transform="rotate(159.667 356.275 169.489)" fill="white" fill-opacity="0.5"/>
<circle cx="369.235" cy="163.714" r="2.46707" transform="rotate(153 369.235 163.714)" fill="white" fill-opacity="0.5"/>
<circle cx="381.556" cy="156.505" r="2.46707" transform="rotate(146.333 381.556 156.505)" fill="white" fill-opacity="0.5"/>
<circle cx="392.946" cy="147.918" r="2.46707" transform="rotate(139.667 392.946 147.918)" fill="white" fill-opacity="0.5"/>
<circle cx="189.39" cy="0.164603" r="2.24279" transform="rotate(-66 189.39 0.164603)" fill="white" fill-opacity="0.5"/>
<circle cx="184.356" cy="13.4868" r="2.24279" transform="rotate(-72 184.356 13.4868)" fill="white" fill-opacity="0.5"/>
<circle cx="180.731" cy="27.2589" r="2.24279" transform="rotate(-78 180.731 27.2589)" fill="white" fill-opacity="0.5"/>
<circle cx="178.553" cy="41.3311" r="2.24279" transform="rotate(-84 178.553 41.3311)" fill="white" fill-opacity="0.5"/>
<circle cx="177.845" cy="55.5497" r="2.24279" transform="rotate(-90 177.845 55.5497)" fill="white" fill-opacity="0.5"/>
<circle cx="178.615" cy="69.7582" r="2.24279" transform="rotate(-96 178.615 69.7582)" fill="white" fill-opacity="0.5"/>
<circle cx="180.856" cy="83.8008" r="2.24279" transform="rotate(-102 180.856 83.8008)" fill="white" fill-opacity="0.5"/>
<circle cx="184.542" cy="97.5255" r="2.24279" transform="rotate(-108 184.542 97.5255)" fill="white" fill-opacity="0.5"/>
<circle cx="189.634" cy="110.78" r="2.24279" transform="rotate(-114 189.634 110.78)" fill="white" fill-opacity="0.5"/>
<circle cx="196.074" cy="123.419" r="2.24279" transform="rotate(-120 196.074 123.419)" fill="white" fill-opacity="0.5"/>
<circle cx="203.963" cy="135.35" r="2.24279" transform="rotate(-126 203.963 135.35)" fill="white" fill-opacity="0.5"/>
<circle cx="213.046" cy="146.397" r="2.24279" transform="rotate(-132 213.046 146.397)" fill="white" fill-opacity="0.5"/>
<circle cx="223.22" cy="156.439" r="2.24279" transform="rotate(-138 223.22 156.439)" fill="white" fill-opacity="0.5"/>
<circle cx="234.377" cy="165.367" r="2.24279" transform="rotate(-144 234.377 165.367)" fill="white" fill-opacity="0.5"/>
<circle cx="246.391" cy="173.081" r="2.24279" transform="rotate(-150 246.391 173.081)" fill="white" fill-opacity="0.5"/>
<circle cx="259.135" cy="179.497" r="2.24279" transform="rotate(-156 259.135 179.497)" fill="white" fill-opacity="0.5"/>
<circle cx="272.464" cy="184.546" r="2.24279" transform="rotate(-162 272.464 184.546)" fill="white" fill-opacity="0.5"/>
<circle cx="286.237" cy="188.171" r="2.24279" transform="rotate(-168 286.237 188.171)" fill="white" fill-opacity="0.5"/>
<circle cx="300.301" cy="190.334" r="2.24279" transform="rotate(-174 300.301 190.334)" fill="white" fill-opacity="0.5"/>
<circle cx="314.5" cy="191.01" r="2.24279" transform="rotate(180 314.5 191.01)" fill="white" fill-opacity="0.5"/>
<circle cx="328.683" cy="190.192" r="2.24279" transform="rotate(174 328.683 190.192)" fill="white" fill-opacity="0.5"/>
<circle cx="342.69" cy="187.889" r="2.24279" transform="rotate(168 342.69 187.889)" fill="white" fill-opacity="0.5"/>
<circle cx="356.368" cy="184.126" r="2.24279" transform="rotate(162 356.368 184.126)" fill="white" fill-opacity="0.5"/>
<circle cx="369.571" cy="178.945" r="2.24279" transform="rotate(156 369.571 178.945)" fill="white" fill-opacity="0.5"/>
<circle cx="382.151" cy="172.403" r="2.24279" transform="rotate(150 382.151 172.403)" fill="white" fill-opacity="0.5"/>
<circle cx="172.214" cy="7.22486" r="2.01851" transform="rotate(-71.1818 172.214 7.22486)" fill="white" fill-opacity="0.5"/>
<circle cx="168.334" cy="20.9128" r="2.01851" transform="rotate(-76.6364 168.334 20.9128)" fill="white" fill-opacity="0.5"/>
<circle cx="165.761" cy="34.9078" r="2.01851" transform="rotate(-82.0909 165.761 34.9078)" fill="white" fill-opacity="0.5"/>
<circle cx="164.519" cy="49.0796" r="2.01851" transform="rotate(-87.5455 164.519 49.0796)" fill="white" fill-opacity="0.5"/>
<circle cx="164.62" cy="63.3029" r="2.01851" transform="rotate(-93 164.62 63.3029)" fill="white" fill-opacity="0.5"/>
<circle cx="166.063" cy="77.4479" r="2.01851" transform="rotate(-98.4545 166.063 77.4479)" fill="white" fill-opacity="0.5"/>
<circle cx="168.834" cy="91.385" r="2.01851" transform="rotate(-103.909 168.834 91.385)" fill="white" fill-opacity="0.5"/>
<circle cx="172.909" cy="104.99" r="2.01851" transform="rotate(-109.364 172.909 104.99)" fill="white" fill-opacity="0.5"/>
<circle cx="178.25" cy="118.139" r="2.01851" transform="rotate(-114.818 178.25 118.139)" fill="white" fill-opacity="0.5"/>
<circle cx="184.81" cy="130.713" r="2.01851" transform="rotate(-120.273 184.81 130.713)" fill="white" fill-opacity="0.5"/>
<circle cx="192.619" cy="142.607" r="2.01851" transform="rotate(-125.727 192.619 142.607)" fill="white" fill-opacity="0.5"/>
<circle cx="201.571" cy="153.737" r="2.01851" transform="rotate(-131.182 201.571 153.737)" fill="white" fill-opacity="0.5"/>
<circle cx="211.542" cy="163.962" r="2.01851" transform="rotate(-136.636 211.542 163.962)" fill="white" fill-opacity="0.5"/>
<circle cx="222.429" cy="173.196" r="2.01851" transform="rotate(-142.091 222.429 173.196)" fill="white" fill-opacity="0.5"/>
<circle cx="234.135" cy="181.357" r="2.01851" transform="rotate(-147.545 234.135 181.357)" fill="white" fill-opacity="0.5"/>
<circle cx="246.552" cy="188.37" r="2.01851" transform="rotate(-153 246.552 188.37)" fill="white" fill-opacity="0.5"/>
<circle cx="259.647" cy="194.225" r="2.01851" transform="rotate(-158.455 259.647 194.225)" fill="white" fill-opacity="0.5"/>
<circle cx="273.15" cy="198.762" r="2.01851" transform="rotate(-163.909 273.15 198.762)" fill="white" fill-opacity="0.5"/>
<circle cx="287.013" cy="201.993" r="2.01851" transform="rotate(-169.364 287.013 201.993)" fill="white" fill-opacity="0.5"/>
<circle cx="301.109" cy="203.89" r="2.01851" transform="rotate(-174.818 301.109 203.89)" fill="white" fill-opacity="0.5"/>
<circle cx="315.311" cy="204.436" r="2.01851" transform="rotate(179.727 315.311 204.436)" fill="white" fill-opacity="0.5"/>
<circle cx="329.488" cy="203.625" r="2.01851" transform="rotate(174.273 329.488 203.625)" fill="white" fill-opacity="0.5"/>
<circle cx="343.515" cy="201.464" r="2.01851" transform="rotate(168.818 343.515 201.464)" fill="white" fill-opacity="0.5"/>
<circle cx="357.263" cy="197.975" r="2.01851" transform="rotate(163.364 357.263 197.975)" fill="white" fill-opacity="0.5"/>
<circle cx="370.61" cy="193.187" r="2.01851" transform="rotate(157.909 370.61 193.187)" fill="white" fill-opacity="0.5"/>
<circle cx="383.431" cy="187.144" r="2.01851" transform="rotate(152.455 383.431 187.144)" fill="white" fill-opacity="0.5"/>
</g>
</g>
<path d="M32.4515 500.537C18.7372 449.044 -6.97705 438.629 -6.97705 438.629V843.629H285.023C285.023 843.629 253.48 769.485 219.88 731.965C182.291 689.99 140.251 690.744 102.166 649.229L101.124 648.094C73.2573 617.722 55.7827 598.676 42.7372 558.972C35.5104 536.977 38.4123 522.917 32.4515 500.537Z" fill="url(#paint4_linear_235_4583)"/>
<path d="M73.6911 689.735C49.4756 642.675 6.48919 624.056 -11.9771 620.629V841.082L351.256 844.509C314.247 793.336 283.97 779.742 265.873 773.975C239.887 765.694 223.896 768.472 185.631 770.549C175.692 771.088 166.166 770.062 157.551 768.223C131.978 762.766 109.014 746.912 94.3764 725.243C88.2516 716.176 81.3044 704.531 73.6911 689.735Z" fill="url(#paint5_linear_235_4583)"/>
<g style="mix-blend-mode:overlay" filter="url(#filter0_d_235_4583)">
<ellipse cx="123.409" cy="779.707" rx="38.5507" ry="38.5504" transform="rotate(-180 123.409 779.707)" fill="white" fill-opacity="0.5" shape-rendering="crispEdges"/>
</g>
<path d="M54.5884 758.862C31.458 712.601 3.75868 703.082 -8.23486 695.467V843.388H261.334C228.895 821 212.503 809.691 168.242 809.691C139.103 809.691 75.1488 799.982 54.5884 758.862Z" fill="url(#paint6_linear_235_4583)"/>
<g style="mix-blend-mode:soft-light">
<path d="M144.112 597.965C186.335 617.126 250.798 673.885 231.637 716.108C212.476 758.331 124.266 793.84 63.7275 766.367C-3.66512 735.784 -6.8348 606.412 12.3262 564.19C31.4872 521.967 101.889 578.804 144.112 597.965Z" fill="url(#paint7_linear_235_4583)" fill-opacity="0.5"/>
</g>
<g style="mix-blend-mode:overlay" filter="url(#filter1_d_235_4583)">
<path d="M83.3174 757.243L83.3174 730.947M70.0003 744.095L96.6345 744.095" stroke="white" stroke-opacity="0.5" stroke-width="12.7988" stroke-linecap="round" shape-rendering="crispEdges"/>
</g>
<g style="mix-blend-mode:overlay" filter="url(#filter2_d_235_4583)">
<ellipse cx="300.777" cy="176.226" rx="38.2674" ry="38.2672" transform="rotate(-180 300.777 176.226)" fill="white" fill-opacity="0.5" shape-rendering="crispEdges"/>
</g>
<g filter="url(#filter3_d_235_4583)">
<ellipse cx="239.291" cy="216.589" rx="69.5276" ry="69.5272" transform="rotate(-180 239.291 216.589)" fill="url(#paint8_linear_235_4583)"/>
</g>
<g style="mix-blend-mode:overlay" filter="url(#filter4_d_235_4583)">
<path d="M129.668 55.0281C129.668 8.6611 167.256 -28.9268 213.623 -28.9268C259.99 -28.9268 284.441 22.9392 284.441 69.3062C284.441 115.673 259.99 138.983 213.623 138.983C167.256 138.983 129.668 101.395 129.668 55.0281Z" fill="url(#paint9_linear_235_4583)" fill-opacity="0.5" shape-rendering="crispEdges"/>
</g>
<g style="mix-blend-mode:soft-light">
<path d="M94.5597 20.1637C115.448 -21.2315 165.94 -37.8551 207.335 -16.9663C248.73 3.92252 234.51 72.4569 213.622 113.852C192.733 155.247 98.53 134.741 57.1346 113.852C15.7392 92.9634 73.671 61.5589 94.5597 20.1637Z" fill="url(#paint10_linear_235_4583)" fill-opacity="0.5"/>
</g>
<g filter="url(#filter5_d_235_4583)">
<ellipse cx="73.0229" cy="97.1294" rx="29" ry="35.5" transform="rotate(-180 73.0229 97.1294)" fill="url(#paint11_linear_235_4583)"/>
</g>
<g style="mix-blend-mode:overlay" filter="url(#filter6_d_235_4583)">
<path d="M134.928 68.8555L93.1159 27.0432M93.1159 68.8555L134.928 27.0432" stroke="white" stroke-opacity="0.5" stroke-width="28.4161" stroke-linecap="round" shape-rendering="crispEdges"/>
</g>
<mask id="mask1_235_4583" style="mask-type:alpha" maskUnits="userSpaceOnUse" x="-645" y="494" width="1143" height="1119">
<rect x="-645" y="494" width="1142.24" height="1119" fill="url(#paint12_radial_235_4583)"/>
</mask>
<g mask="url(#mask1_235_4583)">
<g style="mix-blend-mode:soft-light">
<circle cx="7.19755" cy="7.19755" r="7.19755" transform="matrix(0.820115 0.583723 -0.591765 0.797919 38.6265 838.875)" fill="white" fill-opacity="0.5"/>
<circle cx="7.19755" cy="7.19755" r="7.19755" transform="matrix(0.889389 0.473072 -0.481182 0.868194 9.88379 817.03)" fill="white" fill-opacity="0.5"/>
<circle cx="6.59776" cy="6.59776" r="6.59776" transform="matrix(0.780887 0.634361 -0.642191 0.758679 75.5186 828.085)" fill="white" fill-opacity="0.5"/>
<circle cx="6.59775" cy="6.59775" r="6.59775" transform="matrix(0.849818 0.540648 -0.548554 0.82751 47.6758 804.057)" fill="white" fill-opacity="0.5"/>
<circle cx="6.59776" cy="6.59776" r="6.59776" transform="matrix(0.906966 0.439772 -0.447354 0.885436 17.5625 783.738)" fill="white" fill-opacity="0.5"/>
<circle cx="5.99796" cy="5.99796" r="5.99796" transform="matrix(0.679169 0.738944 -0.747244 0.65913 136.737 842.371)" fill="white" fill-opacity="0.5"/>
<circle cx="5.99796" cy="5.99796" r="5.99796" transform="matrix(0.753885 0.664988 -0.67318 0.732428 110.551 814.943)" fill="white" fill-opacity="0.5"/>
<circle cx="5.99796" cy="5.99796" r="5.99796" transform="matrix(0.820115 0.583723 -0.591765 0.797919 82.3525 790.148)" fill="white" fill-opacity="0.5"/>
<circle cx="5.99796" cy="5.99796" r="5.99796" transform="matrix(0.877138 0.496111 -0.50382 0.854884 52.4473 768.255)" fill="white" fill-opacity="0.5"/>
<circle cx="5.99796" cy="5.99796" r="5.99796" transform="matrix(0.924356 0.403175 -0.410245 0.902675 21.1626 749.508)" fill="white" fill-opacity="0.5"/>
<circle cx="5.99796" cy="5.99796" r="5.99796" transform="matrix(0.961299 0.305989 -0.312009 0.940725 -11.1587 734.109)" fill="white" fill-opacity="0.5"/>
<circle cx="5.39816" cy="5.39816" r="5.39816" transform="matrix(0.667868 0.747854 -0.757289 0.649049 168.917 827.114)" fill="white" fill-opacity="0.5"/>
<circle cx="5.39816" cy="5.39816" r="5.39816" transform="matrix(0.737189 0.682071 -0.691085 0.716841 142.814 799.459)" fill="white" fill-opacity="0.5"/>
<circle cx="5.39816" cy="5.39816" r="5.39816" transform="matrix(0.799687 0.610071 -0.618664 0.778282 114.756 774.12)" fill="white" fill-opacity="0.5"/>
<circle cx="5.39816" cy="5.39816" r="5.39816" transform="matrix(0.85479 0.532546 -0.54064 0.832823 84.9937 751.323)" fill="white" fill-opacity="0.5"/>
<circle cx="5.39816" cy="5.39816" r="5.39816" transform="matrix(0.902005 0.450242 -0.457677 0.879964 53.7969 731.278)" fill="white" fill-opacity="0.5"/>
<circle cx="5.39816" cy="5.39816" r="5.39816" transform="matrix(0.940925 0.363943 -0.370488 0.919261 21.4487 714.168)" fill="white" fill-opacity="0.5"/>
</g>
</g>
<defs>
<filter id="filter0_d_235_4583" x="74.6353" y="727.506" width="104.401" height="104.401" filterUnits="userSpaceOnUse" color-interpolation-filters="sRGB">
<feFlood flood-opacity="0" result="BackgroundImageFix"/>
<feColorMatrix in="SourceAlpha" type="matrix" values="0 0 0 0 0 0 0 0 0 0 0 0 0 0 0 0 0 0 127 0" result="hardAlpha"/>
<feOffset dx="3.42673"/>
<feGaussianBlur stdDeviation="6.82489"/>
<feComposite in2="hardAlpha" operator="out"/>
<feColorMatrix type="matrix" values="0 0 0 0 0 0 0 0 0 0 0 0 0 0 0 0 0 0 0.6 0"/>
<feBlend mode="normal" in2="BackgroundImageFix" result="effect1_dropShadow_235_4583"/>
<feBlend mode="normal" in="SourceGraphic" in2="effect1_dropShadow_235_4583" result="shape"/>
</filter>
<filter id="filter1_d_235_4583" x="59.4513" y="720.48" width="49.384" height="48.8821" filterUnits="userSpaceOnUse" color-interpolation-filters="sRGB">
<feFlood flood-opacity="0" result="BackgroundImageFix"/>
<feColorMatrix in="SourceAlpha" type="matrix" values="0 0 0 0 0 0 0 0 0 0 0 0 0 0 0 0 0 0 127 0" result="hardAlpha"/>
<feOffset dx="0.825889" dy="0.825889"/>
<feGaussianBlur stdDeviation="2.46734"/>
<feComposite in2="hardAlpha" operator="out"/>
<feColorMatrix type="matrix" values="0 0 0 0 0 0 0 0 0 0 0 0 0 0 0 0 0 0 0.1 0"/>
<feBlend mode="normal" in2="BackgroundImageFix" result="effect1_dropShadow_235_4583"/>
<feBlend mode="normal" in="SourceGraphic" in2="effect1_dropShadow_235_4583" result="shape"/>
</filter>
<filter id="filter2_d_235_4583" x="251.227" y="126.677" width="103.634" height="103.633" filterUnits="userSpaceOnUse" color-interpolation-filters="sRGB">
<feFlood flood-opacity="0" result="BackgroundImageFix"/>
<feColorMatrix in="SourceAlpha" type="matrix" values="0 0 0 0 0 0 0 0 0 0 0 0 0 0 0 0 0 0 127 0" result="hardAlpha"/>
<feOffset dx="2.2677" dy="2.2677"/>
<feGaussianBlur stdDeviation="6.77474"/>
<feComposite in2="hardAlpha" operator="out"/>
<feColorMatrix type="matrix" values="0 0 0 0 0 0 0 0 0 0 0 0 0 0 0 0 0 0 0.7 0"/>
<feBlend mode="normal" in2="BackgroundImageFix" result="effect1_dropShadow_235_4583"/>
<feBlend mode="normal" in="SourceGraphic" in2="effect1_dropShadow_235_4583" result="shape"/>
</filter>
<filter id="filter3_d_235_4583" x="92.908" y="70.2068" width="307.798" height="307.798" filterUnits="userSpaceOnUse" color-interpolation-filters="sRGB">
<feFlood flood-opacity="0" result="BackgroundImageFix"/>
<feColorMatrix in="SourceAlpha" type="matrix" values="0 0 0 0 0 0 0 0 0 0 0 0 0 0 0 0 0 0 127 0" result="hardAlpha"/>
<feOffset dx="7.5164" dy="7.5164"/>
<feGaussianBlur stdDeviation="42.1858"/>
<feComposite in2="hardAlpha" operator="out"/>
<feColorMatrix type="matrix" values="0 0 0 0 0 0 0 0 0 0 0 0 0 0 0 0 0 0 0.25 0"/>
<feBlend mode="normal" in2="BackgroundImageFix" result="effect1_dropShadow_235_4583"/>
<feBlend mode="normal" in="SourceGraphic" in2="effect1_dropShadow_235_4583" result="shape"/>
</filter>
<filter id="filter4_d_235_4583" x="78.7968" y="-79.7974" width="266.466" height="279.601" filterUnits="userSpaceOnUse" color-interpolation-filters="sRGB">
<feFlood flood-opacity="0" result="BackgroundImageFix"/>
<feColorMatrix in="SourceAlpha" type="matrix" values="0 0 0 0 0 0 0 0 0 0 0 0 0 0 0 0 0 0 127 0" result="hardAlpha"/>
<feOffset dx="4.97513" dy="4.97513"/>
<feGaussianBlur stdDeviation="27.9229"/>
<feComposite in2="hardAlpha" operator="out"/>
<feColorMatrix type="matrix" values="0 0 0 0 0 0 0 0 0 0 0 0 0 0 0 0 0 0 0.25 0"/>
<feBlend mode="normal" in2="BackgroundImageFix" result="effect1_dropShadow_235_4583"/>
<feBlend mode="normal" in="SourceGraphic" in2="effect1_dropShadow_235_4583" result="shape"/>
</filter>
<filter id="filter5_d_235_4583" x="15.8227" y="33.4291" width="119.916" height="132.916" filterUnits="userSpaceOnUse" color-interpolation-filters="sRGB">
<feFlood flood-opacity="0" result="BackgroundImageFix"/>
<feColorMatrix in="SourceAlpha" type="matrix" values="0 0 0 0 0 0 0 0 0 0 0 0 0 0 0 0 0 0 127 0" result="hardAlpha"/>
<feOffset dx="2.75797" dy="2.75797"/>
<feGaussianBlur stdDeviation="15.4791"/>
<feComposite in2="hardAlpha" operator="out"/>
<feColorMatrix type="matrix" values="0 0 0 0 0 0 0 0 0 0 0 0 0 0 0 0 0 0 0.25 0"/>
<feBlend mode="normal" in2="BackgroundImageFix" result="effect1_dropShadow_235_4583"/>
<feBlend mode="normal" in="SourceGraphic" in2="effect1_dropShadow_235_4583" result="shape"/>
</filter>
<filter id="filter6_d_235_4583" x="69.7853" y="3.71255" width="92.1406" height="92.1406" filterUnits="userSpaceOnUse" color-interpolation-filters="sRGB">
<feFlood flood-opacity="0" result="BackgroundImageFix"/>
<feColorMatrix in="SourceAlpha" type="matrix" values="0 0 0 0 0 0 0 0 0 0 0 0 0 0 0 0 0 0 127 0" result="hardAlpha"/>
<feOffset dx="1.83365" dy="1.83365"/>
<feGaussianBlur stdDeviation="5.47803"/>
<feComposite in2="hardAlpha" operator="out"/>
<feColorMatrix type="matrix" values="0 0 0 0 0 0 0 0 0 0 0 0 0 0 0 0 0 0 0.1 0"/>
<feBlend mode="normal" in2="BackgroundImageFix" result="effect1_dropShadow_235_4583"/>
<feBlend mode="normal" in="SourceGraphic" in2="effect1_dropShadow_235_4583" result="shape"/>
</filter>
<linearGradient id="paint0_linear_235_4583" x1="110.821" y1="94.4356" x2="253.017" y2="403.773" gradientUnits="userSpaceOnUse">
<stop stop-color="#DDDDDD" stop-opacity="0"/>
<stop offset="1" stop-color="#DCDCDC"/>
</linearGradient>
<linearGradient id="paint1_linear_235_4583" x1="53.1372" y1="0.200195" x2="531.94" y2="298.671" gradientUnits="userSpaceOnUse">
<stop stop-color="#500293"/>
<stop offset="1" stop-color="#FF35A0"/>
</linearGradient>
<linearGradient id="paint2_linear_235_4583" x1="-179.254" y1="53.2274" x2="-26.0016" y2="290.18" gradientUnits="userSpaceOnUse">
<stop stop-color="#FF00FE"/>
<stop offset="1" stop-color="#FE8C00"/>
</linearGradient>
<radialGradient id="paint3_radial_235_4583" cx="0" cy="0" r="1" gradientUnits="userSpaceOnUse" gradientTransform="translate(312.594 54.0544) rotate(90) scale(212.054 253.746)">
<stop stop-color="#D9D9D9"/>
<stop offset="1" stop-color="#D9D9D9" stop-opacity="0"/>
</radialGradient>
<linearGradient id="paint4_linear_235_4583" x1="-6.97705" y1="438.629" x2="112.185" y2="766.896" gradientUnits="userSpaceOnUse">
<stop stop-color="#DDDDDD"/>
<stop offset="1" stop-color="#DFDFDF" stop-opacity="0"/>
</linearGradient>
<linearGradient id="paint5_linear_235_4583" x1="-189.877" y1="718.933" x2="237.201" y2="1215" gradientUnits="userSpaceOnUse">
<stop stop-color="#FE8C00"/>
<stop offset="1" stop-color="#FF00FE"/>
</linearGradient>
<linearGradient id="paint6_linear_235_4583" x1="-8.23486" y1="695.467" x2="215.121" y2="943.859" gradientUnits="userSpaceOnUse">
<stop stop-color="#500293"/>
<stop offset="1" stop-color="#FF35A0"/>
</linearGradient>
<linearGradient id="paint7_linear_235_4583" x1="44.8944" y1="743.55" x2="115.505" y2="657.057" gradientUnits="userSpaceOnUse">
<stop offset="0.359375"/>
<stop offset="1" stop-opacity="0"/>
</linearGradient>
<linearGradient id="paint8_linear_235_4583" x1="106.502" y1="246.68" x2="275.312" y2="296.234" gradientUnits="userSpaceOnUse">
<stop stop-color="#FF00FE"/>
<stop offset="1" stop-color="#FE8C00"/>
</linearGradient>
<linearGradient id="paint9_linear_235_4583" x1="297.577" y1="72.7329" x2="189.635" y2="44.1769" gradientUnits="userSpaceOnUse">
<stop offset="0.359375" stop-color="white"/>
<stop offset="1" stop-color="white" stop-opacity="0"/>
</linearGradient>
<linearGradient id="paint10_linear_235_4583" x1="236.467" y1="38.4648" x2="152.986" y2="37.492" gradientUnits="userSpaceOnUse">
<stop offset="0.015625" stop-color="white" stop-opacity="0"/>
<stop offset="0.379556" stop-color="white"/>
<stop offset="1" stop-color="white" stop-opacity="0"/>
</linearGradient>
<linearGradient id="paint11_linear_235_4583" x1="44.0229" y1="61.6294" x2="130.119" y2="104.548" gradientUnits="userSpaceOnUse">
<stop stop-color="#FF35A0"/>
<stop offset="1" stop-color="#500293"/>
</linearGradient>
<radialGradient id="paint12_radial_235_4583" cx="0" cy="0" r="1" gradientUnits="userSpaceOnUse" gradientTransform="translate(-73.8779 1053.5) rotate(90) scale(559.5 683.41)">
<stop stop-color="#D9D9D9"/>
<stop offset="1" stop-color="#D9D9D9" stop-opacity="0"/>
</radialGradient>
</defs>
</svg>
