<svg width="326" height="219" viewBox="0 0 326 219" fill="none" xmlns="http://www.w3.org/2000/svg">
<path fill-rule="evenodd" clip-rule="evenodd" d="M291.079 189.846L291.09 189.853C292.458 190.647 292.927 192.397 292.139 193.769L278.822 216.956C278.727 217.138 278.612 217.31 278.478 217.469C278.181 217.825 277.81 218.093 277.401 218.265L277.246 218.325L277.108 218.371L276.97 218.408L276.799 218.445L276.632 218.47L276.488 218.483L276.404 218.488L276.275 218.49L276.139 218.486L276.062 218.481L275.952 218.47L275.785 218.445L275.663 218.42L275.555 218.393L275.411 218.35L275.321 218.319C274.895 218.165 274.505 217.909 274.189 217.563C274.018 217.376 273.876 217.173 273.762 216.956L260.445 193.769C259.679 192.434 260.102 190.741 261.386 189.919L261.506 189.846C262.833 189.084 264.516 189.509 265.328 190.789L265.393 190.897L276.292 209.874L287.191 190.897C287.975 189.534 289.715 189.063 291.079 189.846ZM228.121 189.468C229.621 189.468 230.851 190.622 230.971 192.09L230.979 192.216L230.981 192.274L230.981 215.209C230.981 216.789 229.701 218.069 228.121 218.069H205.18C203.6 218.069 202.319 216.789 202.319 215.209V192.328C202.319 190.748 203.6 189.468 205.18 189.468H228.121ZM91.977 189.468C93.5566 189.468 94.8372 190.748 94.8372 192.328C94.8372 193.907 93.5566 195.188 91.977 195.188L71.9075 195.188V200.908L91.977 200.908C93.4766 200.908 94.7067 202.062 94.8275 203.531L94.8348 203.656L94.8372 203.774V215.209C94.8372 216.789 93.5566 218.069 91.977 218.069H69.0355C67.4558 218.069 66.1753 216.789 66.1753 215.209C66.1753 213.63 67.4558 212.349 69.0355 212.349L89.1047 212.349V206.629L69.0355 206.629C67.4558 206.629 66.1753 205.348 66.1753 203.768V192.328C66.1753 190.748 67.4558 189.468 69.0355 189.468H91.977ZM125.275 189.468C126.855 189.468 128.136 190.748 128.136 192.328C128.136 193.907 126.855 195.188 125.275 195.188L105.206 195.188V212.349L125.275 212.349C126.855 212.349 128.136 213.63 128.136 215.209C128.136 216.789 126.855 218.069 125.275 218.069H102.334C100.754 218.069 99.4737 216.789 99.4737 215.209V192.328C99.4737 190.748 100.754 189.468 102.334 189.468H125.275ZM322.958 189.468C324.538 189.468 325.818 190.748 325.818 192.328C325.818 193.907 324.538 195.188 322.958 195.188L302.889 195.188V212.349L322.958 212.349C324.538 212.349 325.818 213.63 325.818 215.209C325.818 216.789 324.538 218.069 322.958 218.069H300.017C298.437 218.069 297.157 216.789 297.157 215.209V192.328C297.157 190.748 298.437 189.468 300.017 189.468H322.958ZM59.1001 189.468C60.6797 189.468 61.9603 190.748 61.9603 192.328C61.9603 193.907 60.6797 195.188 59.1001 195.188L39.0306 195.188V212.349L59.1001 212.349C60.6797 212.349 61.9603 213.63 61.9603 215.209C61.9603 216.789 60.6797 218.069 59.1001 218.069H36.1586C34.5789 218.069 33.2984 216.789 33.2984 215.209V192.328C33.2984 190.748 34.5789 189.468 36.1586 189.468H59.1001ZM158.152 189.468C159.652 189.468 160.882 190.622 161.003 192.09L161.01 192.216L161.012 192.274L161.012 215.203C161.012 216.786 159.729 218.069 158.146 218.069C156.563 218.069 155.28 216.786 155.28 215.203L155.28 195.188H138.083L138.083 215.203C138.083 216.786 136.8 218.069 135.217 218.069C133.634 218.069 132.351 216.786 132.351 215.203V192.328L132.353 192.21C132.415 190.685 133.671 189.468 135.211 189.468H158.152ZM14.2371 189.468C14.7123 189.468 15.1604 189.583 15.5548 189.788L15.6842 189.86C15.9351 189.991 16.1706 190.162 16.3815 190.372L27.5029 201.46C27.5771 201.515 27.6493 201.574 27.7191 201.638L27.8279 201.741C28.3891 202.304 28.6668 203.042 28.6615 203.779C28.6666 204.47 28.4228 205.162 27.9299 205.71L27.822 205.824C27.7209 205.924 27.6142 206.016 27.5029 206.099L16.3815 217.187C16.0673 217.5 15.6987 217.726 15.3062 217.863C14.9759 217.996 14.6151 218.069 14.2371 218.069H2.86019C1.28055 218.069 0 216.789 0 215.209V192.328C0 190.748 1.28055 189.468 2.86019 189.468H14.2371ZM238.484 189.468C240.027 189.468 241.286 190.687 241.348 192.216L241.35 192.334L241.35 212.349L261.419 212.349C262.96 212.349 264.215 213.566 264.277 215.091L264.28 215.209C264.28 216.749 263.062 218.005 261.537 218.067L261.419 218.069H238.478C236.938 218.069 235.682 216.852 235.62 215.327L235.618 215.209V192.334C235.618 190.751 236.901 189.468 238.484 189.468ZM225.249 195.188H208.052V212.349H225.249V195.188ZM13.0974 195.188H5.73715V212.349H13.1193L21.7148 203.779L13.0974 195.188ZM113.811 200.908C115.39 200.908 116.671 202.189 116.671 203.768C116.671 205.309 115.453 206.564 113.929 206.626L113.799 206.629C112.219 206.629 110.938 205.348 110.938 203.768C110.938 202.228 112.156 200.972 113.681 200.911L113.811 200.908ZM311.493 200.908C313.073 200.908 314.354 202.189 314.354 203.768C314.354 205.309 313.136 206.564 311.611 206.626L311.482 206.629C309.902 206.629 308.621 205.348 308.621 203.768C308.621 202.228 309.839 200.972 311.364 200.911L311.493 200.908ZM47.6353 200.908C49.215 200.908 50.4955 202.189 50.4955 203.768C50.4955 205.309 49.2782 206.564 47.7532 206.626L47.6233 206.629C46.0437 206.629 44.7632 205.348 44.7632 203.768C44.7632 202.228 45.9805 200.972 47.5055 200.911L47.6353 200.908ZM182.072 218.483L181.989 218.488L181.787 218.489L181.646 218.481L181.537 218.47L181.37 218.445L181.247 218.42L181.139 218.393L180.996 218.35L180.905 218.319C180.48 218.165 180.089 217.909 179.773 217.563C179.602 217.376 179.46 217.173 179.347 216.956L166.03 193.769C165.263 192.434 165.686 190.741 166.97 189.919L167.09 189.846C168.417 189.084 170.1 189.509 170.912 190.789L170.977 190.897L181.876 209.874L192.776 190.897C193.538 189.57 195.206 189.089 196.552 189.785L196.674 189.853C198.043 190.647 198.512 192.397 197.724 193.769L184.407 216.956C184.312 217.138 184.197 217.31 184.063 217.469C183.765 217.825 183.394 218.093 182.986 218.265L182.83 218.325L182.66 218.38L182.554 218.408L182.384 218.445L182.216 218.47L182.072 218.483ZM73.1867 150.041C74.8043 150.041 76.1156 151.352 76.1156 152.97V164.579C76.1156 166.156 74.869 167.442 73.3074 167.506L73.1596 167.508L52.9507 167.508L52.9508 176.134C52.9508 177.752 51.6395 179.063 50.022 179.063C48.4044 179.063 47.0931 177.752 47.0931 176.134V152.97C47.0931 151.352 48.4044 150.041 50.022 150.041C50.0715 150.041 50.1207 150.042 50.1697 150.044L50.2422 150.042L73.1867 150.041ZM70.2574 155.953H52.9507V161.596H70.2574V155.953ZM106.792 150.041C108.409 150.041 109.721 151.352 109.721 152.97V164.579C109.721 166.156 108.474 167.442 106.912 167.506L106.765 167.508L103.085 167.508L108.804 173.28C109.951 174.438 109.951 176.303 108.804 177.461C107.704 178.572 105.93 178.612 104.781 177.574L104.662 177.461L93.9307 166.63C92.7838 165.472 92.7838 163.607 93.9307 162.449C94.5595 161.815 95.4078 161.529 96.2338 161.595L103.862 161.596V155.953H86.5557L86.5558 176.134C86.5558 177.752 85.2445 179.063 83.6269 179.063C82.0094 179.063 80.6981 177.752 80.6981 176.134V152.97C80.6981 151.352 82.0094 150.041 83.6269 150.041C83.6765 150.041 83.7257 150.042 83.7746 150.044L83.8472 150.042L106.792 150.041ZM141.16 179.063H118.289C118.24 179.063 118.192 179.062 118.143 179.06C118.094 179.062 118.045 179.063 117.996 179.063C116.378 179.063 115.067 177.752 115.067 176.134V152.97C115.067 151.352 116.378 150.041 117.996 150.041C118.045 150.041 118.094 150.042 118.143 150.044L118.216 150.042L141.16 150.041C142.778 150.041 144.089 151.352 144.089 152.97V176.134C144.089 177.752 142.778 179.063 141.16 179.063ZM138.231 155.953H120.924V173.151H138.231V155.953ZM174.738 150.041C176.371 150.041 177.694 151.364 177.694 152.997V176.107C177.694 177.74 176.371 179.063 174.738 179.063H151.628C149.995 179.063 148.672 177.74 148.672 176.107C148.672 174.475 149.995 173.151 151.628 173.151L171.782 173.151V155.953L166.139 155.953C164.506 155.953 163.183 154.629 163.183 152.997C163.183 151.364 164.506 150.041 166.139 150.041H174.738ZM241.948 150.041C243.581 150.041 244.904 151.364 244.904 152.997C244.904 154.629 243.581 155.953 241.948 155.953L233.349 155.953L233.349 176.107C233.349 177.74 232.026 179.063 230.393 179.063C228.76 179.063 227.437 177.74 227.437 176.107L227.437 155.953L218.838 155.953C217.205 155.953 215.882 154.629 215.882 152.997C215.882 151.364 217.205 150.041 218.838 150.041H241.948ZM275.58 179.063H252.709C252.66 179.063 252.611 179.062 252.563 179.06C252.514 179.062 252.465 179.063 252.416 179.063C250.798 179.063 249.487 177.752 249.487 176.134V152.97C249.487 151.352 250.798 150.041 252.416 150.041C252.465 150.041 252.514 150.042 252.563 150.044L252.636 150.042L275.58 150.041C277.198 150.041 278.509 151.352 278.509 152.97V176.134C278.509 177.752 277.198 179.063 275.58 179.063ZM272.651 155.953H255.344V173.151H272.651V155.953ZM208.397 150.041C210 150.041 211.299 151.34 211.299 152.943C211.299 154.546 210 155.845 208.397 155.845L188.081 155.845V173.258L208.397 173.259C210 173.259 211.299 174.558 211.299 176.161C211.299 177.764 210 179.063 208.397 179.063H185.179C183.576 179.063 182.277 177.764 182.277 176.161V152.943C182.277 151.34 183.576 150.041 185.179 150.041H208.397ZM196.788 161.65C198.391 161.65 199.69 162.949 199.69 164.552C199.69 166.155 198.391 167.454 196.788 167.454C195.185 167.454 193.886 166.155 193.886 164.552C193.886 162.949 195.185 161.65 196.788 161.65Z" fill="#666666"/>
<path fill-rule="evenodd" clip-rule="evenodd" d="M205.074 75.2938L205.302 75.2978L205.622 75.3173L205.814 75.3369L206.023 75.3649L206.156 75.3864L206.411 75.4361L206.559 75.47L206.744 75.5177L206.938 75.5744L207.273 75.6885L207.534 75.7926L207.786 75.9065L207.953 75.9891L208.186 76.1157L208.418 76.2542L208.543 76.335L208.785 76.5031L208.923 76.6069L209.055 76.712L209.236 76.8658L209.442 77.0556L209.637 77.2518L209.694 77.3123L209.827 77.461L210.014 77.6861L210.104 77.802L210.246 77.9982L210.335 78.1295L210.418 78.2591L210.523 78.433L210.648 78.6595C210.687 78.7324 210.724 78.8066 210.76 78.8815C210.792 78.9495 210.823 79.0181 210.854 79.0874C210.946 79.2999 211.026 79.5184 211.095 79.7421C211.118 79.8166 211.139 79.8918 211.16 79.9677C211.223 80.2062 211.273 80.4503 211.308 80.6992L211.339 80.957L211.348 81.0545C211.359 81.1791 211.366 81.3046 211.369 81.431L211.371 81.5911V112.804L211.368 112.983L211.358 113.214L211.343 113.399L211.325 113.57L211.304 113.724C211.292 113.804 211.279 113.884 211.264 113.963L211.235 114.11L211.191 114.305L211.147 114.475C211.117 114.582 211.085 114.689 211.05 114.794C211.019 114.888 210.986 114.978 210.952 115.067L210.849 115.317C210.806 115.418 210.759 115.517 210.71 115.615L210.651 115.73L210.529 115.951L210.418 116.136L210.334 116.267C210.275 116.357 210.213 116.445 210.149 116.532L209.962 116.774L209.799 116.967L209.684 117.093L209.52 117.263L209.292 117.48L209.177 117.581L208.996 117.731L208.889 117.814L208.793 117.886L208.78 117.895C208.067 118.623 207.167 119.186 206.13 119.502L205.92 119.562L166.568 130.106C166.273 130.185 164.831 130.49 163.457 130.492C162.022 130.493 160.653 130.189 160.345 130.106L120.993 119.562C119.937 119.279 119.016 118.744 118.278 118.039L118.121 117.886L118.024 117.814L117.814 117.646L117.622 117.48L117.563 117.426C117.448 117.319 117.336 117.208 117.229 117.093L117.059 116.903L116.88 116.685L116.862 116.661C116.796 116.576 116.732 116.489 116.67 116.401L116.523 116.179L116.384 115.951L116.323 115.843C116.282 115.768 116.242 115.692 116.203 115.615L116.132 115.467L116.027 115.23L116.014 115.199C115.96 115.068 115.91 114.934 115.865 114.799L115.813 114.636L115.75 114.412L115.711 114.255C115.688 114.159 115.667 114.061 115.649 113.963C115.634 113.884 115.621 113.804 115.609 113.724L115.582 113.51L115.56 113.274L115.552 113.162L115.545 112.983L115.542 112.804V81.5911C115.542 81.4824 115.545 81.3744 115.551 81.267L115.557 81.1607L115.575 80.9495C115.609 80.6137 115.669 80.2857 115.754 79.9676C115.774 79.8918 115.795 79.8166 115.818 79.7419C115.887 79.5184 115.968 79.2999 116.06 79.0876C116.09 79.0181 116.121 78.9495 116.154 78.8815L116.208 78.7697L116.315 78.5669L116.427 78.3707L116.514 78.2295L116.578 78.1295L116.722 77.9203L116.803 77.8102L116.886 77.702L116.957 77.6138L117.086 77.4609L117.276 77.2518L117.439 77.0863L117.677 76.8657L117.858 76.7119L118.06 76.5538L118.263 76.4074L118.37 76.335L118.512 76.2438L118.759 76.0973L118.96 75.9891L119.127 75.9064L119.379 75.7926L119.684 75.6725L119.934 75.5872L120.17 75.5177L120.391 75.4613L120.626 75.4106L120.758 75.3864L120.973 75.3529L121.199 75.326L121.385 75.3099L121.611 75.2978L121.84 75.2938L122 75.2958C122.076 75.2977 122.153 75.3009 122.228 75.3056L122.4 75.3184C122.549 75.3315 122.696 75.3497 122.842 75.373L123.096 75.4191L123.289 75.4613L123.506 75.5165L123.689 75.5696L123.885 75.6332L124.124 75.7209L124.234 75.765L124.509 75.8857L124.791 76.0267L124.975 76.1283L125.201 76.2651L125.363 76.3706L125.511 76.4737L125.67 76.592L125.817 76.7084L125.968 76.836L126.179 77.0274L126.344 77.1907L126.565 77.4284L126.73 77.6231L126.831 77.7514L127.023 78.0144L127.136 78.183L127.266 78.3943L127.401 78.6343L127.414 78.6595C127.452 78.7314 127.489 78.8045 127.524 78.8783L127.576 78.9888L127.69 79.2559L127.744 79.3957L127.799 79.5508L127.814 79.5959C127.855 79.7168 127.892 79.8396 127.925 79.9638C127.984 80.185 128.031 80.4113 128.066 80.6417C128.086 80.7739 128.102 80.9076 128.113 81.0425C128.124 81.1631 128.131 81.2846 128.134 81.407L128.137 81.5911V107.743L163.457 117.207L198.776 107.743V81.5911C198.776 81.4063 198.784 81.2235 198.8 81.0428C198.812 80.9076 198.827 80.7739 198.847 80.6416C198.882 80.4113 198.93 80.185 198.989 79.9636C199.022 79.8396 199.059 79.7168 199.099 79.5957L199.13 79.5059L199.17 79.3957L199.275 79.1306L199.288 79.1008C199.32 79.0257 199.354 78.9515 199.389 78.8782L199.443 78.7681L199.57 78.5278L199.67 78.3554L199.777 78.183L199.92 77.9712L200.012 77.8434L200.082 77.7514L200.183 77.623L200.348 77.4283L200.538 77.2223L200.734 77.0274L200.798 76.9681L200.945 76.836L201.141 76.6725L201.318 76.5355L201.481 76.4187L201.665 76.2954L201.793 76.2144L201.997 76.0952L202.208 75.9819L202.364 75.9049L202.57 75.8111L202.679 75.765L202.879 75.6867L203.11 75.6058L203.277 75.5538L203.548 75.4797L203.776 75.4277L203.855 75.4116C204.071 75.3693 204.29 75.338 204.514 75.3183L204.685 75.3056C204.761 75.3009 204.837 75.2977 204.914 75.2958L205.074 75.2938ZM153.255 89.2586L153.279 89.2573H173.634L173.658 89.2586L173.736 89.2573L173.816 89.2587C175.057 89.3007 176.051 90.3228 176.051 91.5774C176.051 91.8552 176.003 92.1216 175.913 92.3684C174.531 97.8196 169.601 101.852 163.73 101.852L163.456 101.849L163.183 101.852C157.313 101.852 152.383 97.8196 151 92.3684C150.911 92.1216 150.862 91.8552 150.862 91.5774C150.862 90.3228 151.856 89.3007 153.098 89.2587L153.177 89.2573C153.203 89.2573 153.229 89.2578 153.255 89.2586ZM181.527 64.0682C186.215 64.0682 190.015 67.8682 190.015 72.5558C190.015 77.2434 186.215 81.0435 181.527 81.0435C176.84 81.0435 173.04 77.2434 173.04 72.5558C173.04 67.8682 176.84 64.0682 181.527 64.0682ZM145.934 64.0682C150.621 64.0682 154.421 67.8682 154.421 72.5558C154.421 77.2434 150.621 81.0435 145.934 81.0435C141.246 81.0435 137.446 77.2434 137.446 72.5558C137.446 67.8682 141.246 64.0682 145.934 64.0682ZM163.457 0L163.638 0.00162979C168.998 0.0981932 173.313 4.47345 173.313 9.85664C173.313 11.4354 172.942 12.9275 172.282 14.2504C171.88 15.0559 171.372 15.7984 170.775 16.4597L170.646 16.5999C170.472 16.7855 170.29 16.9643 170.102 17.136L169.96 17.2636C169.769 17.4317 169.571 17.5924 169.367 17.7454L169.213 17.8585L169.082 17.9514L168.898 18.0765L168.738 18.1807L168.608 18.2619L168.476 18.3411C168.431 18.3683 168.384 18.3952 168.338 18.4217C168.084 18.5669 167.823 18.701 167.555 18.8235L167.378 18.9025L167.275 18.9464C167.11 19.0158 166.942 19.081 166.773 19.1415L166.652 19.1838L166.469 19.2446L166.468 28.737L206.629 39.4985C209.125 40.1673 210.866 42.2463 211.226 44.6485C211.243 44.7272 211.259 44.8065 211.273 44.8863C211.311 45.0965 211.338 45.3102 211.354 45.527L211.367 45.7883L211.371 45.8927V64.0682L211.369 64.2282C211.359 64.6159 211.315 64.9948 211.238 65.3621C211.208 65.5042 211.174 65.6447 211.134 65.7834C211.058 66.0542 210.964 66.3173 210.854 66.5717C210.823 66.6411 210.792 66.7098 210.76 66.7777L210.709 66.8823L210.593 67.1025L210.496 67.2725L210.4 67.4297L210.335 67.5297L210.191 67.7389L210.115 67.8427L209.956 68.0454L209.827 68.1983L209.637 68.4074L209.476 68.5711L209.258 68.774L209.055 68.9473L208.904 69.0672L208.65 69.2519L208.543 69.3242L208.401 69.4155L208.154 69.562L207.953 69.6701L207.786 69.7528L207.614 69.8321L207.404 69.92L207.236 69.9844L206.982 70.0712L206.787 70.1295L206.522 70.198L206.287 70.2486L206.156 70.2729L205.94 70.3064L205.714 70.3333L205.528 70.3493L205.302 70.3614L205.074 70.3655L204.914 70.3635L204.685 70.3537L204.513 70.3409C204.365 70.3278 204.217 70.3095 204.072 70.2862L203.817 70.2401L203.625 70.1979L203.407 70.1427L203.224 70.0896L203.029 70.026L202.789 69.9384L202.679 69.8942L202.405 69.7736L202.122 69.6326L201.909 69.5138L201.712 69.3942L201.551 69.2886L201.403 69.1855L201.244 69.0673L201.096 68.9508L200.943 68.822L200.733 68.6308L200.569 68.4685L200.348 68.2309L200.172 68.0219L200.076 67.9L199.89 67.6448L199.777 67.4762L199.64 67.2535L199.509 67.0198L199.493 66.9894C199.457 66.9208 199.423 66.8512 199.389 66.7809C199.354 66.7077 199.32 66.6336 199.288 66.5587L199.247 66.4617L199.208 66.3641C199.181 66.2943 199.155 66.2241 199.13 66.1532C199.104 66.0803 199.08 66.0067 199.057 65.9325C198.999 65.746 198.95 65.5555 198.909 65.3618C198.84 65.0278 198.796 64.6841 198.782 64.3329L198.776 64.0682V50.9917L163.457 41.5282L128.137 50.9917V64.0682C128.137 64.5116 128.091 64.9443 128.004 65.3618C127.964 65.5555 127.914 65.746 127.856 65.9327C127.834 66.0067 127.809 66.0803 127.784 66.1534L127.745 66.2591L127.666 66.4617L127.625 66.5585C127.593 66.6336 127.559 66.7077 127.524 66.781L127.473 66.8858L127.352 67.1161L127.243 67.3038L127.136 67.4762L126.993 67.6881L126.909 67.8049L126.837 67.9L126.719 68.0498L126.565 68.231L126.375 68.4369L126.18 68.6308L126.119 68.6886L125.97 68.8221L125.716 69.0313L125.553 69.1547L125.363 69.2886L125.156 69.4226L125.044 69.4904L124.825 69.6144L124.642 69.7093L124.419 69.8148L124.343 69.8481L124.234 69.8942L124.034 69.9725L123.803 70.0534L123.636 70.1055L123.365 70.1795L123.138 70.2315L123.058 70.2477C122.843 70.2899 122.623 70.3212 122.4 70.3409L122.161 70.3574L122 70.3635L121.84 70.3655L121.611 70.3614L121.291 70.3419L121.099 70.3224L120.89 70.2943L120.758 70.2729L120.502 70.2231L120.354 70.1892L120.17 70.1416L119.931 70.0711L119.641 69.9708L119.379 69.8666L119.127 69.7528L118.96 69.6701L118.727 69.5436L118.495 69.405L118.37 69.3242L118.128 69.1561L117.99 69.0524L117.858 68.9472L117.633 68.7545L117.437 68.571L117.276 68.4074L117.219 68.3469L117.086 68.1982L116.877 67.9446L116.799 67.8427L116.667 67.6611L116.578 67.5297L116.463 67.3483L116.344 67.1447L116.258 66.9856C116.222 66.9172 116.187 66.8478 116.154 66.7777C116.121 66.7098 116.09 66.6411 116.06 66.5719C115.949 66.3173 115.855 66.0541 115.779 65.7836C115.74 65.6447 115.705 65.5042 115.675 65.3618C115.599 64.9948 115.554 64.6159 115.544 64.2282L115.542 64.0682V45.8913L115.547 45.7451C115.559 45.4531 115.59 45.1665 115.64 44.8864L115.666 44.7497L115.687 44.6485C116.039 42.2997 117.712 40.2599 120.119 39.5452L120.285 39.4985L160.445 28.737L160.445 19.2446L160.383 19.2246C160.302 19.1979 160.221 19.1702 160.14 19.1415C159.971 19.081 159.803 19.0158 159.638 18.9464L159.535 18.9025L159.358 18.8235C159.091 18.701 158.83 18.5669 158.576 18.4218L158.437 18.341C158.349 18.289 158.262 18.2355 158.176 18.1807L157.964 18.042C157.875 17.9823 157.787 17.9211 157.7 17.8585L157.546 17.7454C157.342 17.5924 157.145 17.4317 156.953 17.2636L156.811 17.136C156.623 16.9643 156.442 16.7855 156.268 16.5999L156.139 16.4597C155.542 15.7984 155.033 15.0559 154.631 14.2506C153.971 12.9275 153.6 11.4354 153.6 9.85664C153.6 4.41297 158.013 0 163.457 0ZM222.596 63.2468L222.757 63.2488C226.106 63.3323 228.807 66.0319 228.892 69.3815L228.894 69.5441V75.5676C228.894 78.992 226.16 81.778 222.757 81.8629L222.596 81.8649C219.119 81.8649 216.299 79.0455 216.299 75.5676V69.5441C216.299 66.0662 219.119 63.2468 222.596 63.2468ZM104.317 81.8649C100.839 81.8649 98.0195 79.0455 98.0195 75.5676V69.5441C98.0195 66.0662 100.839 63.2468 104.317 63.2468L104.477 63.2488C107.827 63.3323 110.527 66.0319 110.612 69.3815L110.614 69.5441V75.5676C110.614 78.992 107.881 81.778 104.477 81.8629L104.317 81.8649Z" fill="url(#paint0_radial_1_7252)"/>
<defs>
<radialGradient id="paint0_radial_1_7252" cx="0" cy="0" r="1" gradientUnits="userSpaceOnUse" gradientTransform="translate(163.457 65.2458) rotate(155.85) scale(71.7138 71.5744)">
<stop stop-color="#0094FF"/>
<stop offset="1" stop-color="#FF00FE"/>
</radialGradient>
</defs>
</svg>
